<svg width="20" height="24" viewBox="0 0 20 24" fill="none" xmlns="http://www.w3.org/2000/svg">
<g clip-path="url(#clip0_23_92)">
<path d="M17.3648 8.93168H15.272C15.0069 8.93168 14.792 8.71676 14.792 8.45168C14.792 8.1866 15.0069 7.97168 15.272 7.97168H17.3648C17.6298 7.97168 17.8448 8.1866 17.8448 8.45168C17.8448 8.71676 17.6298 8.93168 17.3648 8.93168Z" fill="#F0B90B"/>
<path d="M1.06446 10.5779C0.799377 10.5779 0.584457 10.363 0.584457 10.0979C0.584457 9.53051 0.805707 8.9966 1.20766 8.59488C1.60938 8.19293 2.14329 7.97168 2.71071 7.97168H4.84329C5.10836 7.97168 5.32329 8.1866 5.32329 8.45168C5.32329 8.71676 5.10836 8.93168 4.84329 8.93168H2.71071C2.39969 8.93168 2.10696 9.05309 1.88641 9.27363C1.66586 9.49418 1.54446 9.78691 1.54446 10.0979C1.54446 10.363 1.32954 10.5779 1.06446 10.5779Z" fill="#F0B90B"/>
<path d="M17.2893 23.2801H2.71071C2.14329 23.2801 1.60938 23.0589 1.20766 22.6569C0.805707 22.2552 0.584457 21.7213 0.584457 21.1541V10.0979C0.584457 9.83284 0.799377 9.61792 1.06446 9.61792C1.32954 9.61792 1.54446 9.83284 1.54446 10.0979C1.54446 10.7408 2.06758 11.2639 2.71071 11.2639H17.2893C18.4616 11.2639 19.4156 12.2178 19.4156 13.3902V21.1541C19.4156 22.3264 18.4616 23.2801 17.2893 23.2801ZM1.54446 11.875V21.1541C1.54446 21.4649 1.66586 21.7576 1.88641 21.9782C2.10696 22.1987 2.39969 22.3201 2.71071 22.3201H17.2893C17.9324 22.3201 18.4556 21.797 18.4556 21.1541V13.3902C18.4556 12.7471 17.9324 12.2239 17.2893 12.2239H2.71071C2.28039 12.2239 1.87961 12.0955 1.54446 11.875Z" fill="#F0B90B"/>
<path d="M15.6402 17.7112C15.8829 17.7112 16.0797 17.5144 16.0797 17.2717C16.0797 17.029 15.8829 16.8323 15.6402 16.8323C15.3975 16.8323 15.2008 17.029 15.2008 17.2717C15.2008 17.5144 15.3975 17.7112 15.6402 17.7112Z" fill="#F0B90B"/>
<path d="M15.6402 18.191C15.1331 18.191 14.7206 17.7785 14.7206 17.2715C14.7206 16.7646 15.1331 16.3521 15.6402 16.3521C16.1472 16.3521 16.5597 16.7646 16.5597 17.2715C16.5597 17.7785 16.1472 18.191 15.6402 18.191ZM15.6402 17.231C15.618 17.231 15.5997 17.2492 15.5997 17.2715C15.5997 17.316 15.6806 17.316 15.6806 17.2715C15.6806 17.2492 15.6625 17.231 15.6402 17.231Z" fill="#F0B90B"/>
<path d="M12.2479 12.224C12.0623 12.224 11.8858 12.1158 11.8073 11.9348C11.7018 11.6915 11.8136 11.4089 12.0566 11.3034C13.3598 10.7386 14.3657 9.64356 14.8169 8.29872C14.9903 7.78778 15.078 7.25036 15.078 6.70028C15.078 3.93208 12.8259 1.67997 10.0577 1.67997C7.28946 1.67997 5.03735 3.93208 5.03735 6.70028C5.03735 7.25106 5.125 7.78825 5.29774 8.29708C5.74961 9.64356 6.75555 10.7386 8.0584 11.3034C8.3015 11.4089 8.4133 11.6915 8.3078 11.9348C8.2021 12.1781 7.91992 12.2894 7.67641 12.1842C6.12438 11.5113 4.92578 10.2065 4.38813 8.60435C4.18211 7.99731 4.07735 7.3563 4.07735 6.70028C4.07735 3.40263 6.76 0.719971 10.0577 0.719971C13.3553 0.719971 16.038 3.40263 16.038 6.70028C16.038 7.35536 15.9332 7.99661 15.7265 8.60575C15.1895 10.2065 13.9909 11.5113 12.4387 12.1842C12.3763 12.2111 12.3116 12.2238 12.2479 12.224Z" fill="#F0B90B"/>
<path d="M10.1205 9.82249C9.8575 9.82249 9.603 9.79226 9.359 9.73202C8.7805 9.58882 8.3202 9.14046 8.1576 8.56155C8.0859 8.30632 8.2347 8.04124 8.4899 7.96952C8.7452 7.89733 9.0102 8.04663 9.082 8.30186C9.1513 8.5489 9.3456 8.73991 9.5894 8.80015C9.8999 8.87679 10.2285 8.88382 10.593 8.8203C10.9626 8.75632 11.2307 8.44132 11.2307 8.07147C11.2307 7.72015 10.9921 7.41733 10.6506 7.3353L9.2411 6.99663C8.4663 6.81054 7.92508 6.12405 7.92508 5.32718C7.92508 4.48905 8.5281 3.77632 9.3588 3.63241C9.85 3.54733 10.3204 3.55882 10.7568 3.66663C11.3352 3.80983 11.7955 4.25819 11.9582 4.8371C12.0299 5.09233 11.8811 5.35741 11.6259 5.42913C11.3704 5.50061 11.1055 5.35202 11.0338 5.09679C10.9645 4.84976 10.7702 4.65874 10.5264 4.59851C10.2161 4.5221 9.8877 4.51507 9.5228 4.57835C9.1532 4.64233 8.8851 4.95733 8.8851 5.32718C8.8851 5.67851 9.1237 5.98132 9.4652 6.06335L10.8747 6.40202C11.6495 6.58811 12.1907 7.2746 12.1907 8.07147C12.1907 8.9096 11.5877 9.62233 10.757 9.76624C10.5405 9.80374 10.3279 9.82249 10.1205 9.82249Z" fill="#F0B90B"/>
<path d="M10.0579 4.53551C9.7928 4.53551 9.5779 4.32059 9.5779 4.05551V3.03762C9.5779 2.77254 9.7928 2.55762 10.0579 2.55762C10.323 2.55762 10.5379 2.77254 10.5379 3.03762V4.05551C10.5379 4.32059 10.323 4.53551 10.0579 4.53551Z" fill="#F0B90B"/>
<path d="M10.0579 10.8407C9.7928 10.8407 9.5779 10.6258 9.5779 10.3607V9.34279C9.5779 9.07771 9.7928 8.86279 10.0579 8.86279C10.323 8.86279 10.5379 9.07771 10.5379 9.34279V10.3607C10.5379 10.6258 10.323 10.8407 10.0579 10.8407Z" fill="#F0B90B"/>
</g>
<defs>
<clipPath id="clip0_23_92">
<rect width="20" height="24" fill="white"/>
</clipPath>
</defs>
</svg>
