<svg width="32" height="32" viewBox="0 0 32 32" fill="none" xmlns="http://www.w3.org/2000/svg">
<path d="M25.8197 11.9089H23.0293C22.6758 11.9089 22.3893 11.6223 22.3893 11.2689C22.3893 10.9155 22.6758 10.6289 23.0293 10.6289H25.8197C26.173 10.6289 26.4597 10.9155 26.4597 11.2689C26.4597 11.6223 26.173 11.9089 25.8197 11.9089Z" fill="#1855CA"/>
<path d="M4.08592 14.1039C3.73248 14.1039 3.44592 13.8173 3.44592 13.4639C3.44592 12.7073 3.74092 11.9955 4.27686 11.4598C4.81248 10.9239 5.52436 10.6289 6.28092 10.6289H9.12436C9.47779 10.6289 9.76436 10.9155 9.76436 11.2689C9.76436 11.6223 9.47779 11.9089 9.12436 11.9089H6.28092C5.86623 11.9089 5.47592 12.0708 5.18186 12.3648C4.88779 12.6589 4.72592 13.0492 4.72592 13.4639C4.72592 13.8173 4.43936 14.1039 4.08592 14.1039Z" fill="#1855CA"/>
<path d="M25.719 31.0401H6.28092C5.52436 31.0401 4.81248 30.7452 4.27686 30.2092C3.74092 29.6736 3.44592 28.9617 3.44592 28.2055V13.4639C3.44592 13.1104 3.73248 12.8239 4.08592 12.8239C4.43936 12.8239 4.72592 13.1104 4.72592 13.4639C4.72592 14.3211 5.42342 15.0185 6.28092 15.0185H25.719C27.2821 15.0185 28.5541 16.2904 28.5541 17.8536V28.2055C28.5541 29.7685 27.2821 31.0401 25.719 31.0401ZM4.72592 15.8333V28.2055C4.72592 28.6199 4.88779 29.0101 5.18186 29.3043C5.47592 29.5983 5.86623 29.7601 6.28092 29.7601H25.719C26.5765 29.7601 27.2741 29.0627 27.2741 28.2055V17.8536C27.2741 16.9961 26.5765 16.2985 25.719 16.2985H6.28092C5.70716 16.2985 5.17279 16.1273 4.72592 15.8333Z" fill="#1855CA"/>
<path d="M23.5203 23.6149C23.8439 23.6149 24.1063 23.3525 24.1063 23.0289C24.1063 22.7053 23.8439 22.4431 23.5203 22.4431C23.1967 22.4431 22.9344 22.7053 22.9344 23.0289C22.9344 23.3525 23.1967 23.6149 23.5203 23.6149Z" fill="#1855CA"/>
<path d="M23.5203 24.2547C22.8442 24.2547 22.2942 23.7047 22.2942 23.0287C22.2942 22.3528 22.8442 21.8028 23.5203 21.8028C24.1963 21.8028 24.7463 22.3528 24.7463 23.0287C24.7463 23.7047 24.1963 24.2547 23.5203 24.2547ZM23.5203 22.9747C23.4907 22.9747 23.4663 22.9989 23.4663 23.0287C23.4663 23.088 23.5742 23.088 23.5742 23.0287C23.5742 22.9989 23.5501 22.9747 23.5203 22.9747Z" fill="#1855CA"/>
<path d="M18.9972 16.2987C18.7497 16.2987 18.5144 16.1544 18.4097 15.9131C18.2691 15.5887 18.4181 15.2119 18.7421 15.0712C20.4797 14.3181 21.8209 12.8581 22.4225 11.065C22.6537 10.3837 22.7707 9.66715 22.7707 8.93371C22.7707 5.24277 19.7679 2.23996 16.0769 2.23996C12.386 2.23996 9.38315 5.24277 9.38315 8.93371C9.38315 9.66808 9.50002 10.3843 9.73034 11.0628C10.3328 12.8581 11.6741 14.3181 13.4112 15.0712C13.7353 15.2119 13.8844 15.5887 13.7437 15.9131C13.6028 16.2375 13.2266 16.3859 12.9019 16.2456C10.8325 15.3484 9.23439 13.6087 8.51752 11.4725C8.24283 10.6631 8.10315 9.8084 8.10315 8.93371C8.10315 4.53684 11.68 0.959961 16.0769 0.959961C20.4737 0.959961 24.0507 4.53684 24.0507 8.93371C24.0507 9.80715 23.9109 10.6621 23.6353 11.4743C22.9193 13.6087 21.3212 15.3484 19.2516 16.2456C19.1684 16.2815 19.0821 16.2984 18.9972 16.2987Z" fill="#1855CA"/>
<path d="M16.1606 13.0966C15.81 13.0966 15.4706 13.0563 15.1453 12.976C14.374 12.7851 13.7602 12.1873 13.5434 11.4154C13.4478 11.0751 13.6462 10.7216 13.9865 10.626C14.3269 10.5298 14.6802 10.7288 14.776 11.0691C14.8684 11.3985 15.1274 11.6532 15.4525 11.7335C15.8665 11.8357 16.3046 11.8451 16.7906 11.7604C17.2834 11.6751 17.6409 11.2551 17.6409 10.762C17.6409 10.2935 17.3228 9.88976 16.8674 9.78039L14.9881 9.32883C13.955 9.08071 13.2334 8.16539 13.2334 7.1029C13.2334 5.98539 14.0374 5.03508 15.145 4.8432C15.8 4.72976 16.4272 4.74508 17.009 4.88883C17.7802 5.07976 18.394 5.67758 18.6109 6.44946C18.7065 6.78976 18.5081 7.1432 18.1678 7.23883C17.8272 7.33414 17.474 7.13602 17.3784 6.79571C17.286 6.46634 17.0269 6.21164 16.7018 6.13134C16.2881 6.02946 15.8502 6.02008 15.3637 6.10446C14.8709 6.18976 14.5134 6.60976 14.5134 7.1029C14.5134 7.57134 14.8316 7.97508 15.2869 8.08446L17.1662 8.53602C18.1993 8.78414 18.9209 9.69946 18.9209 10.762C18.9209 11.8795 18.1169 12.8298 17.0093 13.0216C16.7206 13.0716 16.4372 13.0966 16.1606 13.0966Z" fill="#1855CA"/>
<path d="M16.0773 6.04734C15.7238 6.04734 15.4373 5.76078 15.4373 5.40734V4.05016C15.4373 3.69672 15.7238 3.41016 16.0773 3.41016C16.4307 3.41016 16.7173 3.69672 16.7173 4.05016V5.40734C16.7173 5.76078 16.4307 6.04734 16.0773 6.04734Z" fill="#1855CA"/>
<path d="M16.0773 14.4543C15.7238 14.4543 15.4373 14.1677 15.4373 13.8143V12.457C15.4373 12.1036 15.7238 11.817 16.0773 11.817C16.4307 11.817 16.7173 12.1036 16.7173 12.457V13.8143C16.7173 14.1677 16.4307 14.4543 16.0773 14.4543Z" fill="#1855CA"/>
</svg>
