<svg width="24" height="24" viewBox="0 0 24 24" fill="none" xmlns="http://www.w3.org/2000/svg">
<path d="M19.3648 8.93168H17.272C17.0069 8.93168 16.792 8.71676 16.792 8.45168C16.792 8.1866 17.0069 7.97168 17.272 7.97168H19.3648C19.6298 7.97168 19.8448 8.1866 19.8448 8.45168C19.8448 8.71676 19.6298 8.93168 19.3648 8.93168Z" fill="white"/>
<path d="M3.06446 10.5779C2.79938 10.5779 2.58446 10.363 2.58446 10.0979C2.58446 9.53051 2.80571 8.9966 3.20766 8.59488C3.60938 8.19293 4.14329 7.97168 4.71071 7.97168H6.84329C7.10836 7.97168 7.32329 8.1866 7.32329 8.45168C7.32329 8.71676 7.10836 8.93168 6.84329 8.93168H4.71071C4.39969 8.93168 4.10696 9.05309 3.88641 9.27363C3.66586 9.49418 3.54446 9.78691 3.54446 10.0979C3.54446 10.363 3.32954 10.5779 3.06446 10.5779Z" fill="white"/>
<path d="M19.2893 23.2801H4.71071C4.14329 23.2801 3.60938 23.0589 3.20766 22.6569C2.80571 22.2552 2.58446 21.7213 2.58446 21.1541V10.0979C2.58446 9.83284 2.79938 9.61792 3.06446 9.61792C3.32954 9.61792 3.54446 9.83284 3.54446 10.0979C3.54446 10.7408 4.06758 11.2639 4.71071 11.2639H19.2893C20.4616 11.2639 21.4156 12.2178 21.4156 13.3902V21.1541C21.4156 22.3264 20.4616 23.2801 19.2893 23.2801ZM3.54446 11.875V21.1541C3.54446 21.4649 3.66586 21.7576 3.88641 21.9782C4.10696 22.1987 4.39969 22.3201 4.71071 22.3201H19.2893C19.9324 22.3201 20.4556 21.797 20.4556 21.1541V13.3902C20.4556 12.7471 19.9324 12.2239 19.2893 12.2239H4.71071C4.28039 12.2239 3.87961 12.0955 3.54446 11.875Z" fill="white"/>
<path d="M17.6402 17.7112C17.8829 17.7112 18.0797 17.5144 18.0797 17.2717C18.0797 17.029 17.8829 16.8323 17.6402 16.8323C17.3975 16.8323 17.2008 17.029 17.2008 17.2717C17.2008 17.5144 17.3975 17.7112 17.6402 17.7112Z" fill="white"/>
<path d="M17.6402 18.191C17.1331 18.191 16.7206 17.7785 16.7206 17.2715C16.7206 16.7646 17.1331 16.3521 17.6402 16.3521C18.1472 16.3521 18.5597 16.7646 18.5597 17.2715C18.5597 17.7785 18.1472 18.191 17.6402 18.191ZM17.6402 17.231C17.618 17.231 17.5997 17.2492 17.5997 17.2715C17.5997 17.316 17.6806 17.316 17.6806 17.2715C17.6806 17.2492 17.6625 17.231 17.6402 17.231Z" fill="white"/>
<path d="M14.2479 12.224C14.0623 12.224 13.8858 12.1158 13.8073 11.9348C13.7018 11.6915 13.8136 11.4089 14.0566 11.3034C15.3598 10.7386 16.3657 9.64356 16.8169 8.29872C16.9903 7.78778 17.078 7.25036 17.078 6.70028C17.078 3.93208 14.8259 1.67997 12.0577 1.67997C9.28946 1.67997 7.03735 3.93208 7.03735 6.70028C7.03735 7.25106 7.125 7.78825 7.29774 8.29708C7.74961 9.64356 8.75555 10.7386 10.0584 11.3034C10.3015 11.4089 10.4133 11.6915 10.3078 11.9348C10.2021 12.1781 9.91992 12.2894 9.67641 12.1842C8.12438 11.5113 6.92578 10.2065 6.38813 8.60435C6.18211 7.99731 6.07735 7.3563 6.07735 6.70028C6.07735 3.40263 8.76 0.719971 12.0577 0.719971C15.3553 0.719971 18.038 3.40263 18.038 6.70028C18.038 7.35536 17.9332 7.99661 17.7265 8.60575C17.1895 10.2065 15.9909 11.5113 14.4387 12.1842C14.3763 12.2111 14.3116 12.2238 14.2479 12.224Z" fill="white"/>
<path d="M12.1205 9.82249C11.8575 9.82249 11.603 9.79226 11.359 9.73202C10.7805 9.58882 10.3202 9.14046 10.1576 8.56155C10.0859 8.30632 10.2347 8.04124 10.4899 7.96952C10.7452 7.89733 11.0102 8.04663 11.082 8.30186C11.1513 8.5489 11.3456 8.73991 11.5894 8.80015C11.8999 8.87679 12.2285 8.88382 12.593 8.8203C12.9626 8.75632 13.2307 8.44132 13.2307 8.07147C13.2307 7.72015 12.9921 7.41733 12.6506 7.3353L11.2411 6.99663C10.4663 6.81054 9.92508 6.12405 9.92508 5.32718C9.92508 4.48905 10.5281 3.77632 11.3588 3.63241C11.85 3.54733 12.3204 3.55882 12.7568 3.66663C13.3352 3.80983 13.7955 4.25819 13.9582 4.8371C14.0299 5.09233 13.8811 5.35741 13.6259 5.42913C13.3704 5.50061 13.1055 5.35202 13.0338 5.09679C12.9645 4.84976 12.7702 4.65874 12.5264 4.59851C12.2161 4.5221 11.8877 4.51507 11.5228 4.57835C11.1532 4.64233 10.8851 4.95733 10.8851 5.32718C10.8851 5.67851 11.1237 5.98132 11.4652 6.06335L12.8747 6.40202C13.6495 6.58811 14.1907 7.2746 14.1907 8.07147C14.1907 8.9096 13.5877 9.62233 12.757 9.76624C12.5405 9.80374 12.3279 9.82249 12.1205 9.82249Z" fill="white"/>
<path d="M12.0579 4.53551C11.7928 4.53551 11.5779 4.32059 11.5779 4.05551V3.03762C11.5779 2.77254 11.7928 2.55762 12.0579 2.55762C12.323 2.55762 12.5379 2.77254 12.5379 3.03762V4.05551C12.5379 4.32059 12.323 4.53551 12.0579 4.53551Z" fill="white"/>
<path d="M12.0579 10.8407C11.7928 10.8407 11.5779 10.6258 11.5779 10.3607V9.34279C11.5779 9.07771 11.7928 8.86279 12.0579 8.86279C12.323 8.86279 12.5379 9.07771 12.5379 9.34279V10.3607C12.5379 10.6258 12.323 10.8407 12.0579 10.8407Z" fill="white"/>
</svg>
