<svg width="32" height="32" viewBox="0 0 32 32" fill="none" xmlns="http://www.w3.org/2000/svg">
<path d="M29.0733 7.34409H28.6752V3.16398C28.6752 1.4194 27.3623 0 25.7485 0H4.52084C2.17836 0 0.246976 1.93698 0.0240224 4.40708C-0.0100268 4.58162 0.0020977 3.02639 0.0020977 27.115C0.0020977 29.8086 2.02916 32 4.52078 32H29.0733C30.6871 32 32 30.5807 32 28.836V10.5081C32.0001 8.76349 30.6872 7.34409 29.0733 7.34409ZM4.52084 2.17332H25.7485C26.2538 2.17332 26.6649 2.61775 26.6649 3.16405V7.34415H4.52084C3.1769 7.34415 2.07671 6.19552 2.0154 4.75874C2.07665 3.32188 3.17684 2.17332 4.52084 2.17332ZM29.0733 29.8268H4.52084C3.1377 29.8268 2.01245 28.6103 2.01245 27.115V8.69381C2.73056 9.21383 3.59347 9.51733 4.52084 9.51733H29.0733C29.5787 9.51733 29.9898 9.96176 29.9898 10.5081V14.9134H22.4256C19.8495 14.9134 17.7536 17.1791 17.7536 19.964C17.7536 22.749 19.8495 25.0146 22.4256 25.0146H29.9898V28.836C29.9898 29.3823 29.5787 29.8268 29.0733 29.8268ZM29.9898 22.8415H22.4256C20.9579 22.8415 19.7639 21.5507 19.7639 19.9641C19.7639 18.3775 20.9579 17.0867 22.4256 17.0867H29.9898V22.8415Z" fill="white" fill-opacity="0.5"/>
</svg>
