<svg width="32" height="32" viewBox="0 0 32 32" fill="none" xmlns="http://www.w3.org/2000/svg">
<path d="M30.83 11.8562L19.3958 1.3524C17.4328 -0.450801 14.5696 -0.450801 12.6066 1.3524L1.17234 11.8562C-0.215517 13.1315 -0.396814 15.4009 0.765987 16.9162C1.34114 17.6704 2.1726 18.1297 3.06033 18.1914V28.4073C3.06033 30.3819 4.52321 31.9863 6.32993 31.9931H13.3567V23.1485C13.3567 21.551 14.5383 20.2552 15.9949 20.2552C17.4516 20.2552 18.6331 21.551 18.6331 23.1485V32H25.6662C27.4666 32 28.9295 30.3956 28.9358 28.4142V18.1983C30.7425 18.068 32.1116 16.354 31.9928 14.3725C31.9303 13.3989 31.5114 12.487 30.83 11.8562ZM28.7232 16.8339H27.6855V28.4142C27.6855 29.6346 26.7852 30.6287 25.6662 30.6287H19.8834V23.1485C19.8834 20.79 18.1392 18.8839 15.9949 18.8839C13.8444 18.8839 12.1064 20.7968 12.1064 23.1485V30.6287H6.32993C5.21714 30.6287 4.31065 29.6414 4.31065 28.421V16.8339H3.27914C1.3849 16.8339 0.528425 14.2422 1.9788 12.9052L13.413 2.40141C14.9134 1.0233 17.0952 1.0233 18.5956 2.40141L30.0236 12.9121C31.4739 14.2422 30.6175 16.8339 28.7232 16.8339Z" fill="#1855CA"/>
</svg>
