<svg width="24" height="24" viewBox="0 0 24 24" fill="none" xmlns="http://www.w3.org/2000/svg">
<path d="M17.6621 11.9996L20.096 9.56571L22.5298 11.9996L20.096 14.4334L17.6621 11.9996Z" fill="white"/>
<path d="M1.46628 11.9991L3.90012 9.56528L6.33397 11.9991L3.90012 14.433L1.46628 11.9991Z" fill="white"/>
<path d="M12 17.6662L7.965 13.6312L5.53125 16.065L12 22.5337L18.4688 16.065L16.035 13.6312L12 17.6662Z" fill="white"/>
<path d="M12 6.33375L16.035 10.3688L18.4688 7.935L12 1.46625L5.53125 7.935L7.965 10.3688L12 6.33375Z" fill="white"/>
<path d="M9.59268 12L11.996 9.59664L14.3994 12L11.996 14.4034L9.59268 12Z" fill="white"/>
</svg>
