<svg width="32" height="32" viewBox="0 0 32 32" fill="none" xmlns="http://www.w3.org/2000/svg">
<g clip-path="url(#clip0_56_93)">
<path d="M28.6666 5.33331H15.9999C15.9284 5.33331 15.8573 5.34456 15.7893 5.36663L15.6293 5.41994C15.2799 5.53619 15.0909 5.91363 15.2071 6.26294C15.2078 6.26506 15.2086 6.26713 15.2093 6.26925L21.9106 25.8519L17.4973 30.8946C17.255 31.1719 17.2833 31.5931 17.5606 31.8353C17.6822 31.9416 17.8383 32.0001 17.9999 31.9999H28.6666C30.5076 32 31.9999 30.5076 31.9999 28.6667V8.66669C31.9999 6.82569 30.5076 5.33331 28.6666 5.33331Z" fill="#ECEFF1"/>
<path d="M23.2733 25.724C23.1651 25.4861 22.9279 25.3334 22.6666 25.3333H15.9999C15.6318 25.3333 15.3333 25.6318 15.3333 26C15.3333 26.0801 15.3477 26.1596 15.3759 26.2347L17.3759 31.568C17.4585 31.7876 17.6504 31.9476 17.8813 31.9893C17.9204 31.9961 17.9601 31.9996 17.9999 32C18.1921 31.9998 18.3748 31.9167 18.5013 31.772L23.1679 26.4387C23.3403 26.2418 23.3814 25.9623 23.2733 25.724Z" fill="#1976D2"/>
<path d="M28.6667 14.6667H19.3333C18.9651 14.6667 18.6666 14.3682 18.6666 14C18.6666 13.6318 18.9651 13.3333 19.3333 13.3333H28.6666C29.0348 13.3333 29.3333 13.6318 29.3333 14C29.3333 14.3682 29.0349 14.6667 28.6667 14.6667Z" fill="#455A64"/>
<path d="M23.3333 14.6667C22.9651 14.6667 22.6666 14.3682 22.6666 14V12.6667C22.6666 12.2985 22.9651 12 23.3333 12C23.7015 12 24 12.2985 24 12.6667V14C24 14.3682 23.7015 14.6667 23.3333 14.6667Z" fill="#455A64"/>
<path d="M21.3333 22.6667C20.9651 22.6664 20.6669 22.3676 20.6672 21.9994C20.6674 21.7843 20.7715 21.5824 20.9467 21.4574C23.8667 19.3827 26 15.1533 26 14C26 13.6318 26.2985 13.3333 26.6667 13.3333C27.0349 13.3333 27.3334 13.6318 27.3334 14C27.3334 15.7573 24.764 20.3813 21.72 22.5427C21.6071 22.6232 21.472 22.6666 21.3333 22.6667Z" fill="#455A64"/>
<path d="M26.6666 24C26.4998 24.0002 26.3391 23.9379 26.216 23.8253C25.7333 23.3826 21.472 19.4466 20.716 17.584C20.5771 17.2427 20.7413 16.8535 21.0826 16.7147C21.424 16.5759 21.8131 16.7401 21.952 17.0814C22.4973 18.4254 25.8666 21.6947 27.1186 22.8401C27.3911 23.0877 27.4112 23.5093 27.1636 23.7818C27.0364 23.9217 26.8557 24.001 26.6666 24Z" fill="#455A64"/>
<path d="M23.2973 25.784L14.6307 0.450687C14.5384 0.181125 14.2849 0 14 0H3.33331C1.49238 0 0 1.49238 0 3.33331V23.3333C0 25.1742 1.49238 26.6666 3.33331 26.6666H22.6666C23.0348 26.6666 23.3333 26.3681 23.3333 25.9999C23.3333 25.9265 23.3211 25.8535 23.2973 25.784Z" fill="#2196F3"/>
<path d="M12.6667 18.6667C12.3848 18.6668 12.1333 18.4895 12.0387 18.224L9.33334 10.648L6.62803 18.224C6.49034 18.5655 6.1019 18.7307 5.7604 18.593C5.43821 18.4631 5.26978 18.1076 5.37334 17.776L8.70665 8.44269C8.86972 8.09625 9.28278 7.94756 9.62921 8.11056C9.77515 8.17925 9.89259 8.29669 9.96134 8.44269L13.2947 17.776C13.4188 18.1217 13.2399 18.5027 12.8947 18.628C12.8214 18.6539 12.7443 18.667 12.6667 18.6667Z" fill="#FAFAFA"/>
<path d="M10.6666 14.6667H7.99994C7.63175 14.6667 7.33325 14.3682 7.33325 14C7.33325 13.6318 7.63175 13.3333 7.99994 13.3333H10.6666C11.0348 13.3333 11.3333 13.6318 11.3333 14C11.3333 14.3682 11.0348 14.6667 10.6666 14.6667Z" fill="#FAFAFA"/>
</g>
<defs>
<clipPath id="clip0_56_93">
<rect width="32" height="32" fill="white"/>
</clipPath>
</defs>
</svg>
