<svg width="24" height="24" viewBox="0 0 24 24" fill="none" xmlns="http://www.w3.org/2000/svg">
<path d="M9.66335 10.3321C10.784 10.3321 11.8794 10.0291 12.8112 9.46148C13.743 8.89383 14.4692 8.087 14.898 7.14303C15.3269 6.19905 15.4391 5.16033 15.2204 4.15821C15.0018 3.1561 14.4622 2.23559 13.6698 1.51311C12.8774 0.79062 11.8678 0.2986 10.7687 0.0992667C9.66964 -0.100067 8.53041 0.00223837 7.49509 0.393245C6.45977 0.784252 5.57487 1.4464 4.95228 2.29595C4.3297 3.14551 3.9974 4.14431 3.9974 5.16606C3.99811 6.53599 4.59528 7.84962 5.6577 8.8183C6.72012 9.78699 8.16087 10.3315 9.66335 10.3321ZM9.66335 1.22033C10.5193 1.22033 11.3559 1.45174 12.0676 1.88531C12.7793 2.31887 13.3339 2.93511 13.6615 3.6561C13.989 4.37708 14.0747 5.17044 13.9077 5.93584C13.7408 6.70123 13.3286 7.4043 12.7234 7.95612C12.1182 8.50794 11.3471 8.88373 10.5076 9.03598C9.66816 9.18822 8.79803 9.11009 8.00728 8.81144C7.21652 8.5128 6.54065 8.00707 6.06514 7.35819C5.58962 6.70932 5.33581 5.94645 5.33581 5.16606C5.33629 4.11972 5.79237 3.11636 6.60384 2.37649C7.41531 1.63661 8.51576 1.22076 9.66335 1.22033Z" fill="white"/>
<path d="M13.2922 12.2155C13.3514 12.0628 13.3417 11.895 13.2652 11.7489C13.1888 11.6027 13.0518 11.4902 12.8845 11.4361C11.4268 10.9674 9.86705 10.8241 8.33609 11.0184C6.80514 11.2126 5.34757 11.7387 4.08561 12.5525C2.82364 13.3663 1.79406 14.4441 1.08319 15.6956C0.372314 16.947 0.000870575 18.3356 0 19.7449C0 19.9068 0.0705055 20.062 0.196006 20.1764C0.321507 20.2908 0.491723 20.3551 0.669207 20.3551C0.846692 20.3551 1.01691 20.2908 1.14241 20.1764C1.26791 20.062 1.33841 19.9068 1.33841 19.7449C1.33871 18.5306 1.65839 17.3341 2.27065 16.2557C2.8829 15.1773 3.76987 14.2485 4.85715 13.5472C5.94443 12.8459 7.2003 12.3926 8.51942 12.2253C9.83853 12.058 11.1824 12.1816 12.4383 12.5857C12.6054 12.6394 12.7891 12.6307 12.9491 12.5613C13.1091 12.4919 13.2325 12.3676 13.2922 12.2155Z" fill="white"/>
<path d="M17.6582 15.4591C17.1238 15.4593 16.6015 15.6039 16.1573 15.8747C15.7132 16.1455 15.367 16.5303 15.1626 16.9804C14.9583 17.4306 14.9049 17.9259 15.0093 18.4037C15.1136 18.8815 15.371 19.3203 15.7489 19.6648C16.1268 20.0092 16.6082 20.2437 17.1323 20.3387C17.6564 20.4337 18.1995 20.3849 18.6932 20.1984C19.1868 20.0119 19.6087 19.6962 19.9056 19.2911C20.2024 18.886 20.3609 18.4098 20.3609 17.9226C20.3604 17.2692 20.0755 16.6428 19.5687 16.1808C19.0619 15.7189 18.3747 15.4593 17.6582 15.4591ZM17.6582 19.1657C17.3885 19.1655 17.125 19.0925 16.9009 18.9558C16.6768 18.8191 16.5022 18.6249 16.3992 18.3977C16.2961 18.1706 16.2692 17.9206 16.322 17.6796C16.3747 17.4385 16.5046 17.217 16.6953 17.0433C16.886 16.8695 17.1289 16.7512 17.3934 16.7033C17.6578 16.6554 17.9319 16.6801 18.181 16.7742C18.4301 16.8683 18.643 17.0276 18.7927 17.232C18.9425 17.4364 19.0224 17.6767 19.0224 17.9226C19.0222 18.2523 18.8784 18.5685 18.6225 18.8016C18.3667 19.0347 18.0198 19.1657 17.6582 19.1657Z" fill="white"/>
<path d="M23.4115 18.2691C23.4283 18.0378 23.4283 17.8057 23.4115 17.5744L23.9469 16.3841C24.0088 16.247 24.0139 16.0941 23.9612 15.9538C23.6812 15.209 23.2454 14.5208 22.6781 13.9272C22.5711 13.8157 22.4234 13.7434 22.2623 13.7238L20.8614 13.553C20.65 13.424 20.4294 13.308 20.2011 13.2056L19.3392 12.1854C19.2399 12.0681 19.0972 11.9877 18.9377 11.9592C18.0904 11.8072 17.2188 11.8072 16.3715 11.9592C16.212 11.9877 16.0693 12.0681 15.97 12.1854L15.1071 13.2064C14.8787 13.3085 14.6581 13.4246 14.4468 13.5538L13.0469 13.7238C12.8858 13.7434 12.738 13.8157 12.6311 13.9272C12.0637 14.5208 11.628 15.209 11.348 15.9538C11.2953 16.0941 11.3004 16.247 11.3622 16.3841L11.8976 17.576C11.8808 17.8073 11.8808 18.0394 11.8976 18.2708L11.3622 19.461C11.3004 19.5981 11.2953 19.7511 11.348 19.8914C11.6279 20.6362 12.0637 21.3244 12.6311 21.9179C12.738 22.0295 12.8858 22.1018 13.0469 22.1213L14.4477 22.2922C14.6592 22.4211 14.8798 22.5371 15.108 22.6395L15.97 23.6597C16.0693 23.777 16.212 23.8574 16.3715 23.8859C17.2187 24.038 18.0904 24.038 18.9377 23.8859C19.0972 23.8574 19.2399 23.777 19.3392 23.6597L20.202 22.6387C20.4304 22.5366 20.651 22.4205 20.8623 22.2913L22.2623 22.1213C22.4234 22.1018 22.5712 22.0295 22.6781 21.9179C23.2464 21.3246 23.6831 20.6364 23.9639 19.8914C24.0165 19.7511 24.0115 19.5981 23.9496 19.461L23.4115 18.2691ZM21.8304 20.9425L20.5286 21.1052C20.4205 21.1184 20.3175 21.1555 20.2288 21.2134C19.9984 21.3625 19.7531 21.4917 19.4962 21.599C19.3969 21.6398 19.3101 21.7024 19.2437 21.7813L18.4407 22.7299C17.9216 22.8006 17.3938 22.8006 16.8747 22.7299L16.0717 21.7813C16.0053 21.7024 15.9185 21.6398 15.8192 21.599C15.5623 21.4917 15.317 21.3625 15.0866 21.2134C14.9979 21.1555 14.8949 21.1184 14.7868 21.1052L13.485 20.9425C13.1584 20.5677 12.8944 20.151 12.7016 19.7059L13.2012 18.5978C13.2427 18.506 13.259 18.4063 13.2485 18.3074C13.2216 18.0509 13.2216 17.7926 13.2485 17.5361C13.259 17.4373 13.2427 17.3375 13.2012 17.2457L12.7007 16.1384C12.8934 15.6932 13.1574 15.2765 13.4841 14.9018L14.7859 14.7391C14.8941 14.726 14.997 14.6888 15.0857 14.6309C15.3161 14.4818 15.5614 14.3527 15.8183 14.2453C15.9177 14.2045 16.0044 14.1419 16.0708 14.0631L16.8738 13.1145C17.3929 13.0437 17.9207 13.0437 18.4398 13.1145L19.2428 14.0631C19.3092 14.1419 19.3959 14.2045 19.4953 14.2453C19.7522 14.3527 19.9975 14.4818 20.2279 14.6309C20.3166 14.6888 20.4196 14.726 20.5277 14.7391L21.8295 14.9018C22.1561 15.2766 22.4201 15.6933 22.613 16.1384L22.1133 17.2465C22.0718 17.3383 22.0555 17.4381 22.066 17.5369C22.093 17.7934 22.093 18.0517 22.066 18.3082C22.0555 18.4071 22.0718 18.5068 22.1133 18.5986L22.6139 19.7059C22.4211 20.1511 22.1571 20.5678 21.8304 20.9425Z" fill="white"/>
</svg>
