<svg width="33" height="33" viewBox="0 0 33 33" fill="none" xmlns="http://www.w3.org/2000/svg">
<path d="M18.4288 12.1665C18.4288 12.1665 17.3829 11.1268 15.7707 11.6502C14.2903 12.1309 13.9227 14.3138 14.9286 15.1641C15.5062 15.6523 16.3754 16.0538 17.5467 16.5C20.1684 17.4987 19.1992 21.4833 16.5325 21.5024C15.4917 21.5099 15.0052 21.4387 14.091 20.7942" stroke="white" stroke-width="2" stroke-miterlimit="10" stroke-linecap="round" stroke-linejoin="round"/>
<path d="M16.4669 22.3064V23.3064" stroke="white" stroke-miterlimit="10" stroke-linecap="round" stroke-linejoin="round"/>
<path d="M16.4669 9.63058V10.6306" stroke="white" stroke-miterlimit="10" stroke-linecap="round" stroke-linejoin="round"/>
<path d="M5.45532 6.04329C3.16129 8.94818 1.90956 12.6186 1.90956 16.5H1.02849C0.521966 16.5 0.306143 17.2063 0.710361 17.541L4.05562 20.3111C4.24389 20.467 4.50362 20.467 4.69189 20.3111L8.03715 17.541C8.44136 17.2062 8.22548 16.4999 7.71901 16.4999H6.83698C6.83698 10.6571 11.1715 5.90363 16.4993 5.90363C21.2973 5.90363 25.2896 9.75865 26.0362 14.7926" stroke="white" stroke-miterlimit="10" stroke-linecap="round" stroke-linejoin="round"/>
<path d="M30.9721 14.4585C30.5681 10.9581 29.1277 7.7217 26.8157 5.18631C24.0601 2.16428 20.3962 0.5 16.4992 0.5C13.0238 0.5 9.7339 1.82358 7.10815 4.25348" stroke="white" stroke-miterlimit="10" stroke-linecap="round" stroke-linejoin="round"/>
<path d="M29.9483 22.7229C30.665 20.8599 31.0549 18.8467 31.086 16.769H31.9705C32.477 16.769 32.6929 16.0627 32.2886 15.728L28.9434 12.9579C28.7551 12.802 28.4954 12.802 28.3071 12.9579L24.9619 15.728C24.5576 16.0628 24.7735 16.7691 25.28 16.7691H26.1584C26.0278 22.488 21.7451 27.0963 16.4992 27.0963C11.7968 27.0963 7.86824 23.3933 7.01074 18.5067" stroke="white" stroke-miterlimit="10" stroke-linecap="round" stroke-linejoin="round"/>
<path d="M2.03809 18.6407C2.45763 22.103 3.89267 25.3022 6.18277 27.8137C8.93838 30.8357 12.6022 32.5 16.4992 32.5C20.3963 32.5 24.0601 30.8357 26.8157 27.8137C27.65 26.8989 28.3706 25.8927 28.97 24.8158" stroke="white" stroke-miterlimit="10" stroke-linecap="round" stroke-linejoin="round"/>
</svg>
