<svg width="33" height="33" viewBox="0 0 33 33" fill="none" xmlns="http://www.w3.org/2000/svg">
<path d="M17.5245 14.0081C17.5245 14.0081 16.9411 13.4181 16.042 13.7151C15.2164 13.9879 15.0113 15.2268 15.5723 15.7093C15.8945 15.9864 16.3792 16.2142 17.0325 16.4674C18.4947 17.0342 17.9541 19.2955 16.4669 19.3064C15.8864 19.3106 15.6151 19.2702 15.1052 18.9045" stroke="#1855CA" stroke-miterlimit="10" stroke-linecap="round" stroke-linejoin="round"/>
<path d="M16.4669 19.3064V20.3694" stroke="#1855CA" stroke-miterlimit="10" stroke-linecap="round" stroke-linejoin="round"/>
<path d="M16.4669 12.6306V13.6316" stroke="#1855CA" stroke-miterlimit="10" stroke-linecap="round" stroke-linejoin="round"/>
<path d="M16.4995 23.0109C19.7784 23.0109 22.4365 20.0959 22.4365 16.5C22.4365 12.9042 19.7784 9.98914 16.4995 9.98914C13.2206 9.98914 10.5625 12.9042 10.5625 16.5C10.5625 20.0959 13.2206 23.0109 16.4995 23.0109Z" stroke="#1855CA" stroke-miterlimit="10" stroke-linecap="round" stroke-linejoin="round"/>
<path d="M5.45532 6.04329C3.16129 8.94818 1.90956 12.6186 1.90956 16.5H1.02849C0.521966 16.5 0.306143 17.2063 0.710361 17.541L4.05562 20.3111C4.24389 20.467 4.50362 20.467 4.69189 20.3111L8.03715 17.541C8.44136 17.2062 8.22548 16.4999 7.71901 16.4999H6.83698C6.83698 10.6571 11.1715 5.90363 16.4993 5.90363C21.2973 5.90363 25.2896 9.75865 26.0362 14.7926" stroke="#1855CA" stroke-miterlimit="10" stroke-linecap="round" stroke-linejoin="round"/>
<path d="M30.9721 14.4585C30.5681 10.9581 29.1277 7.7217 26.8157 5.18631C24.0601 2.16428 20.3962 0.5 16.4992 0.5C13.0238 0.5 9.7339 1.82358 7.10815 4.25348" stroke="#1855CA" stroke-miterlimit="10" stroke-linecap="round" stroke-linejoin="round"/>
<path d="M29.9483 22.7229C30.665 20.8599 31.0549 18.8467 31.086 16.769H31.9705C32.477 16.769 32.6929 16.0627 32.2886 15.728L28.9434 12.9579C28.7551 12.802 28.4954 12.802 28.3071 12.9579L24.9619 15.728C24.5576 16.0628 24.7735 16.7691 25.28 16.7691H26.1584C26.0278 22.488 21.7451 27.0963 16.4992 27.0963C11.7968 27.0963 7.86824 23.3933 7.01074 18.5067" stroke="#1855CA" stroke-miterlimit="10" stroke-linecap="round" stroke-linejoin="round"/>
<path d="M2.03809 18.6407C2.45763 22.103 3.89267 25.3022 6.18277 27.8137C8.93838 30.8357 12.6022 32.5 16.4992 32.5C20.3963 32.5 24.0601 30.8357 26.8157 27.8137C27.65 26.8989 28.3706 25.8927 28.97 24.8158" stroke="#1855CA" stroke-miterlimit="10" stroke-linecap="round" stroke-linejoin="round"/>
</svg>
