<svg width="24" height="24" viewBox="0 0 24 24" fill="none" xmlns="http://www.w3.org/2000/svg">
<path d="M21 10.0505V10C21 5.0375 16.9625 1 12 1C7.0375 1 3 5.0375 3 10V10.0505C1.8605 10.283 1 11.2925 1 12.5V14.5C1 15.8785 2.1215 17 3.5 17H4.5C5.0515 17 5.5 16.5515 5.5 16V11C5.5 10.4485 5.0515 10 4.5 10H4C4 5.589 7.589 2 12 2C16.411 2 20 5.589 20 10H19.5C18.9485 10 18.5 10.4485 18.5 11V16C18.5 16.5515 18.9485 17 19.5 17H20C20 18.9295 18.43 20.5 16.5 20.5H15.429C15.2055 19.6395 14.429 19 13.5 19H12C10.897 19 10 19.897 10 21C10 22.103 10.897 23 12 23H13.5C14.429 23 15.2055 22.3605 15.429 21.5H16.5C18.981 21.5 21 19.4815 21 17V16.9495C22.1395 16.717 23 15.7075 23 14.5V12.5C23 11.293 22.1395 10.283 21 10.0505ZM4.5 11V16H3.5C2.673 16 2 15.327 2 14.5V12.5C2 11.673 2.673 11 3.5 11H4.5ZM13.5 22H12C11.4485 22 11 21.5515 11 21C11 20.4485 11.4485 20 12 20H13.5C14.0515 20 14.5 20.4485 14.5 21C14.5 21.5515 14.0515 22 13.5 22ZM22 14.5C22 15.327 21.327 16 20.5 16H19.5V11H20.5C21.327 11 22 11.673 22 12.5V14.5Z" fill="#F0B90B"/>
<path d="M10.7805 17.927L12.2075 16.5H14.5005C15.879 16.5 17.0005 15.3785 17.0005 14V11C17.0005 9.6215 15.879 8.5 14.5005 8.5H9.50049C8.12199 8.5 7.00049 9.6215 7.00049 11V14C7.00049 15.3785 8.12199 16.5 9.50049 16.5V17.3965C9.50049 17.701 9.68249 17.973 9.96399 18.0895C10.0575 18.1285 10.155 18.147 10.2515 18.147C10.4465 18.147 10.637 18.071 10.7805 17.927ZM9.49999 15.5C8.67299 15.5 7.99999 14.827 7.99999 14V11C7.99999 10.173 8.67299 9.5 9.49999 9.5H14.5C15.327 9.5 16 10.173 16 11V14C16 14.827 15.327 15.5 14.5 15.5H12C11.8675 15.5 11.74 15.5525 11.6465 15.6465L10.5 16.793V16C10.5 15.7235 10.276 15.5 9.99999 15.5H9.49999Z" fill="#F0B90B"/>
<path d="M10 12H14C14.276 12 14.5 11.776 14.5 11.5C14.5 11.224 14.276 11 14 11H10C9.724 11 9.5 11.224 9.5 11.5C9.5 11.776 9.724 12 10 12Z" fill="#F0B90B"/>
<path d="M13.5 13.5C13.5 13.2235 13.276 13 13 13H10C9.724 13 9.5 13.2235 9.5 13.5C9.5 13.7765 9.724 14 10 14H13C13.276 14 13.5 13.7765 13.5 13.5Z" fill="#F0B90B"/>
</svg>
