<svg width="32" height="32" viewBox="0 0 32 32" fill="none" xmlns="http://www.w3.org/2000/svg">
<path d="M5.59435 21.5938L2.03885 25.1493C1.87216 25.316 1.77849 25.5421 1.77844 25.7778V31.1111C1.77847 31.3469 1.87212 31.5729 2.03881 31.7396C2.2055 31.9063 2.43158 32 2.66732 32H9.7783C10.014 32 10.2401 31.9063 10.4068 31.7396C10.5735 31.5729 10.6672 31.3469 10.6672 31.1111V25.7778C10.6671 25.5421 10.5735 25.316 10.4068 25.1493L6.85127 21.5938C6.68457 21.4271 6.45851 21.3335 6.22281 21.3335C5.98711 21.3335 5.76105 21.4271 5.59435 21.5938ZM6.22281 23.4792L8.88943 26.1458V30.2222H3.55619V26.1458L6.22281 23.4792Z" fill="white"/>
<path d="M16.2607 14.4826L12.7052 18.0382C12.5385 18.2049 12.4449 18.4309 12.4448 18.6667V31.1111C12.4448 31.3468 12.5385 31.5729 12.7052 31.7396C12.8719 31.9063 13.098 32 13.3337 32H20.4447C20.6804 32 20.9065 31.9063 21.0732 31.7396C21.2399 31.5729 21.3335 31.3468 21.3336 31.1111V18.6667C21.3335 18.4309 21.2398 18.2049 21.0731 18.0382L17.5177 14.4826C17.351 14.316 17.1249 14.2224 16.8892 14.2224C16.6535 14.2224 16.4274 14.316 16.2607 14.4826ZM16.8892 16.368L19.5558 19.0347V30.2222H14.2226V19.0347L16.8892 16.368Z" fill="white"/>
<path d="M26.9272 9.14931L23.3717 12.7049C23.205 12.8715 23.1114 13.0976 23.1113 13.3333V31.1111C23.1114 31.3469 23.205 31.5729 23.3717 31.7396C23.5384 31.9063 23.7645 32 24.0002 32H31.1112C31.3469 32 31.573 31.9063 31.7397 31.7396C31.9064 31.5729 32 31.3469 32.0001 31.1111V13.3333C32 13.0976 31.9063 12.8715 31.7397 12.7049L28.1842 9.14931C28.0175 8.98268 27.7914 8.88907 27.5557 8.88907C27.32 8.88907 27.0939 8.98268 26.9272 9.14931ZM27.5557 11.0347L30.2223 13.7014V30.2222H24.8891V13.7014L27.5557 11.0347Z" fill="white"/>
<path d="M27.5556 0C27.3199 0 27.0938 0.0936507 26.9271 0.26035C26.7604 0.427049 26.6668 0.653141 26.6668 0.888889C26.6668 1.12464 26.7604 1.35073 26.9271 1.51743C27.0938 1.68413 27.3199 1.77778 27.5556 1.77778H28.9653L20.4446 10.2986C20.2087 10.5346 19.8895 10.6667 19.5558 10.6667C19.1516 10.6667 18.7567 10.5471 18.4204 10.3229L17.2329 9.53125C16.6047 9.11245 15.8664 8.88889 15.1114 8.88889C14.3153 8.88889 13.5476 9.19293 12.9656 9.73611L0.281801 21.5729C0.196489 21.6527 0.127732 21.7485 0.0794632 21.8548C0.0311938 21.9612 0.00435752 22.076 0.000487998 22.1928C-0.00338152 22.3095 0.0157919 22.4258 0.0569119 22.5352C0.0980319 22.6445 0.160293 22.7446 0.240135 22.8299C0.319902 22.9152 0.4157 22.9839 0.522054 23.0322C0.628408 23.0805 0.743231 23.1073 0.859962 23.1112C0.976692 23.115 1.09304 23.0959 1.20236 23.0548C1.31167 23.0136 1.41182 22.9514 1.49706 22.8715L14.1809 11.0347C14.434 10.7984 14.7651 10.6667 15.1114 10.6667C15.5156 10.6667 15.9105 10.7862 16.2468 11.0104L17.4343 11.8021C18.0625 12.2209 18.8008 12.4444 19.5558 12.4444C20.3603 12.4444 21.1327 12.1245 21.7016 11.5556L30.2223 3.03472V4.44444C30.2223 4.68019 30.3159 4.90628 30.4826 5.07298C30.6493 5.23968 30.8754 5.33333 31.1111 5.33333C31.3469 5.33333 31.573 5.23968 31.7397 5.07298C31.9064 4.90628 32 4.68019 32 4.44444V0.888889C32 0.653148 31.9063 0.427069 31.7396 0.260376C31.5729 0.0936817 31.3469 2.35705e-05 31.1111 0H27.5556Z" fill="white"/>
</svg>
