<svg width="24" height="24" viewBox="0 0 24 24" fill="none" xmlns="http://www.w3.org/2000/svg">
<path d="M12 5.42099C8.36778 5.42099 5.42255 8.36567 5.42255 11.999C5.42255 15.6323 8.36778 18.5762 12 18.5762C15.6322 18.5762 18.5774 15.6315 18.5774 11.9982C18.5774 8.36486 15.6322 5.42099 12 5.42099ZM14.3074 12.5499L12.5509 14.3066C12.2464 14.611 11.7536 14.611 11.4491 14.3066L9.69261 12.5499C9.38818 12.2455 9.38818 11.7525 9.69261 11.4481L11.4491 9.69142C11.7536 9.38696 12.2464 9.38696 12.5509 9.69142L14.3074 11.4481C14.6118 11.7517 14.6118 12.2455 14.3074 12.5499Z" fill="white"/>
<path d="M8.67221 1.98903C10.7992 1.26977 13.1944 1.26735 15.3334 1.99144C16.109 2.24596 17.0617 2.76466 17.7487 3.19315C17.433 4.03886 17.6102 5.02713 18.2899 5.70692C19.2185 6.6364 20.7254 6.6364 21.654 5.70692C22.5833 4.77825 22.5833 3.27128 21.654 2.34261C20.8373 1.5259 19.5761 1.42844 18.6515 2.04702C17.8574 1.5404 16.734 0.923433 15.7909 0.614951C13.3643 -0.204984 10.6341 -0.204984 8.20751 0.614951C7.82818 0.743015 7.62442 1.15459 7.75328 1.53395C7.88134 1.91251 8.29127 2.11709 8.67221 1.98903Z" fill="white"/>
<path d="M15.3278 22.009C13.2008 22.7282 10.8056 22.7306 8.66658 22.0065C8.01987 21.7947 7.02363 21.2889 6.24403 20.829C6.57181 19.9776 6.39624 18.9773 5.71007 18.2903C4.78067 17.3616 3.27463 17.3616 2.34604 18.2903C1.41665 19.2197 1.41665 20.7259 2.34604 21.6546C3.15463 22.4632 4.39973 22.5663 5.32188 21.9671C6.19651 22.4979 7.38524 23.1116 8.20913 23.3814C9.42201 23.7914 10.6977 24 12.0008 24C13.3039 24 14.5796 23.7914 15.7925 23.3814C16.1718 23.2534 16.3756 22.8418 16.2467 22.4624C16.1179 22.0839 15.7079 21.8801 15.3278 22.009Z" fill="white"/>
<path d="M24 11.999C24 10.695 23.7922 9.41918 23.3815 8.207C23.2526 7.82683 22.8419 7.62306 22.4625 7.75273C22.0832 7.8808 21.8803 8.29237 22.0083 8.67173C22.3675 9.73411 22.5503 10.8545 22.5503 11.9998C22.5503 13.1451 22.3675 14.2655 22.0059 15.3343C21.7764 16.0358 21.3133 17.0177 20.8744 17.7724C20.0142 17.4204 18.989 17.5928 18.2907 18.2911C17.3613 19.2205 17.3613 20.7267 18.2907 21.6554C19.2193 22.5848 20.7262 22.5848 21.6548 21.6554C22.4489 20.8612 22.5584 19.649 21.9954 18.7324C22.5246 17.8658 23.1004 16.652 23.3815 15.7918C23.7922 14.5788 24 13.303 24 11.999Z" fill="white"/>
<path d="M1.99168 15.3271C1.63168 14.2639 1.44966 13.1443 1.44966 11.999C1.44966 10.8537 1.63248 9.7333 1.99409 8.66449C2.20832 8.00886 2.71329 7.01092 3.16752 6.24093C4.0196 6.57116 5.02148 6.39557 5.70926 5.70773C6.63785 4.77906 6.63785 3.27209 5.70926 2.34342C4.77987 1.41394 3.27383 1.41394 2.34523 2.34342C1.53745 3.15047 1.43356 4.39406 2.03034 5.31548C1.50523 6.17971 0.891544 7.37095 0.618523 8.207C0.207785 9.41918 0 10.695 0 11.999C0 13.303 0.207785 14.5788 0.618523 15.791C0.720805 16.0938 1.00268 16.2839 1.3055 16.2839C1.38282 16.2839 1.46094 16.271 1.53825 16.2453C1.91597 16.1172 2.11973 15.7056 1.99168 15.3271Z" fill="white"/>
</svg>
