<svg width="32" height="24" viewBox="0 0 32 24" fill="none" xmlns="http://www.w3.org/2000/svg">
<path d="M2.18181 24.0059H7.27275V11.6422L3.93913 5.82112L0 6.18768V21.8241C0 23.0295 0.976375 24.0059 2.18181 24.0059Z" fill="#0085F7"/>
<path d="M24.7273 24.0059H29.8182C31.0237 24.0059 32 23.0295 32 21.8241V6.18768L28.0666 5.82112L24.7274 11.6422V24.0059H24.7273Z" fill="#00A94B"/>
<path d="M24.7273 2.18768L21.7368 7.89412L24.7273 11.6422L32 6.18768V3.27862C32 0.582241 28.9218 -0.95776 26.7636 0.660428L24.7273 2.18768Z" fill="#FFBC00"/>
<path fill-rule="evenodd" clip-rule="evenodd" d="M7.27278 11.6422L4.42322 5.62287L7.27278 2.18768L16 8.73312L24.7273 2.18768V11.6422L16 18.1877L7.27278 11.6422Z" fill="#FF4131"/>
<path d="M0 3.27862V6.18768L7.27275 11.6422V2.18768L5.23638 0.660428C3.07819 -0.95776 0 0.582241 0 3.27862Z" fill="#E51C19"/>
</svg>
