<svg width="32" height="32" viewBox="0 0 32 32" fill="none" xmlns="http://www.w3.org/2000/svg">
<path d="M24.0885 19.9756V15.8476C24.0892 15.3074 23.8495 14.7878 23.4192 14.3967C22.9888 14.0056 22.401 13.773 21.7777 13.7473V11.497C21.7777 10.1707 21.1691 8.89876 20.0857 7.96096C19.0023 7.02315 17.5329 6.49629 16.0007 6.49629C14.4686 6.49629 12.9992 7.02315 11.9158 7.96096C10.8324 8.89876 10.2238 10.1707 10.2238 11.497V13.7473C9.60148 13.7729 9.01446 14.0048 8.58429 14.3949C8.15411 14.7849 7.91374 15.3033 7.91296 15.8426V19.9756C7.91296 21.0417 8.40182 22.0642 9.27216 22.8186C10.1425 23.5729 11.3231 23.9973 12.5548 23.9987H19.4467C20.6783 23.9973 21.8589 23.5729 22.7293 22.8186C23.5996 22.0642 24.0885 21.0417 24.0885 19.9756ZM16.0007 7.49643C17.2264 7.49643 18.402 7.91791 19.2687 8.66816C20.1354 9.4184 20.6223 10.436 20.6223 11.497V13.7473H11.3791V11.497C11.3791 10.436 11.8661 9.4184 12.7328 8.66816C13.5995 7.91791 14.775 7.49643 16.0007 7.49643ZM9.06836 19.9756V15.8476C9.06836 15.5558 9.20226 15.2759 9.44061 15.0696C9.67895 14.8633 10.0022 14.7474 10.3393 14.7474H21.6622C21.8291 14.7474 21.9943 14.7759 22.1485 14.8311C22.3027 14.8864 22.4428 14.9675 22.5608 15.0696C22.6789 15.1718 22.7725 15.2931 22.8363 15.4265C22.9002 15.56 22.9331 15.7031 22.9331 15.8476V19.9756C22.9331 20.7765 22.566 21.5446 21.9123 22.1114C21.2586 22.6781 20.3719 22.9972 19.4467 22.9985H12.5548C11.6296 22.9972 10.7428 22.6781 10.0892 22.1114C9.43549 21.5446 9.06836 20.7765 9.06836 19.9756Z" fill="white"/>
<path d="M16.0008 15.8676C15.532 15.8693 15.0794 16.0162 14.7247 16.2816C14.3701 16.547 14.1368 16.9135 14.067 17.3148C13.9973 17.7161 14.0956 18.1257 14.3443 18.4697C14.593 18.8137 14.9757 19.0694 15.4231 19.1905V20.6907C15.4231 20.8233 15.484 20.9505 15.5923 21.0443C15.7007 21.1381 15.8476 21.1908 16.0008 21.1908C16.154 21.1908 16.301 21.1381 16.4093 21.0443C16.5176 20.9505 16.5785 20.8233 16.5785 20.6907V19.1905C17.0259 19.0694 17.4086 18.8137 17.6573 18.4697C17.906 18.1257 18.0043 17.7161 17.9346 17.3148C17.8648 16.9135 17.6315 16.547 17.2769 16.2816C16.9222 16.0162 16.4696 15.8693 16.0008 15.8676ZM16.0008 18.2654C15.8406 18.2659 15.6838 18.2252 15.5504 18.1484C15.4169 18.0717 15.3128 17.9624 15.2513 17.8344C15.1897 17.7063 15.1734 17.5654 15.2045 17.4293C15.2357 17.2933 15.3127 17.1683 15.426 17.0703C15.5393 16.9722 15.6837 16.9055 15.8408 16.8785C15.998 16.8516 16.1609 16.8657 16.3088 16.919C16.4567 16.9723 16.5829 17.0624 16.6716 17.1779C16.7602 17.2934 16.8073 17.4291 16.8067 17.5678C16.8067 17.6594 16.7858 17.7501 16.7453 17.8348C16.7048 17.9194 16.6455 17.9963 16.5707 18.0611C16.4958 18.1259 16.407 18.1772 16.3092 18.2123C16.2114 18.2473 16.1066 18.2654 16.0008 18.2654Z" fill="white"/>
<path d="M32 15.9976C32.0046 13.0839 30.9457 10.2434 28.9746 7.88157C27.0035 5.51975 24.2208 3.75729 21.0237 2.84578C20.8782 2.80434 20.7196 2.81464 20.5828 2.87443C20.446 2.93421 20.3423 3.03858 20.2944 3.16458C20.2465 3.29057 20.2584 3.42787 20.3275 3.54627C20.3965 3.66467 20.5171 3.75447 20.6627 3.79591C23.8914 4.72168 26.655 6.57901 28.4913 9.05725C30.3276 11.5355 31.1253 14.4844 30.7508 17.4107C30.3764 20.337 28.8525 23.0632 26.4342 25.1335C24.0158 27.2038 20.8496 28.4926 17.4651 28.7843L18.8891 27.5491C18.9472 27.5037 18.994 27.4486 19.0268 27.387C19.0595 27.3255 19.0774 27.2589 19.0795 27.1911C19.0815 27.1234 19.0677 27.0561 19.0388 26.9931C19.0098 26.9302 18.9664 26.873 18.9112 26.825C18.856 26.777 18.79 26.7392 18.7174 26.714C18.6448 26.6887 18.567 26.6765 18.4888 26.678C18.4106 26.6796 18.3335 26.6949 18.2623 26.723C18.1911 26.7511 18.1272 26.7914 18.0746 26.8415L15.5934 28.9993C15.5654 29.0213 15.5411 29.0466 15.5212 29.0743C15.5113 29.0857 15.5035 29.0984 15.4981 29.1118C15.4858 29.1276 15.4751 29.1444 15.4663 29.1618L15.449 29.2118C15.4388 29.2235 15.4301 29.2361 15.423 29.2493C15.4082 29.3137 15.4082 29.38 15.423 29.4444C15.4264 29.4597 15.4313 29.4747 15.4374 29.4894L15.4547 29.5394L15.4865 29.5869C15.4919 29.6003 15.4997 29.613 15.5096 29.6244C15.5303 29.6525 15.5545 29.6785 15.5818 29.7019L18.0688 31.8522C18.1768 31.9464 18.3236 31.9995 18.4769 32C18.6302 32.0005 18.7775 31.9482 18.8862 31.8547C18.995 31.7612 19.0565 31.6341 19.057 31.5014C19.0575 31.3687 18.9972 31.2413 18.8891 31.1471L17.3294 29.7944C21.3266 29.5032 25.052 27.9239 27.7687 25.3691C30.4853 22.8143 31.9953 19.4699 32 15.9976Z" fill="white"/>
<path d="M11.3155 28.1942C8.08951 27.2653 5.32957 25.4061 3.4969 22.9273C1.66423 20.4485 0.869875 17.5004 1.24658 14.5756C1.62329 11.6507 3.14824 8.92641 5.56658 6.8579C7.98492 4.78938 11.1501 3.50199 14.5333 3.21086L13.1121 4.44603C13.0541 4.49142 13.0072 4.54656 12.9745 4.6081C12.9418 4.66963 12.9239 4.73628 12.9218 4.804C12.9197 4.87172 12.9336 4.93909 12.9625 5.00203C12.9914 5.06498 13.0348 5.12218 13.0901 5.17016C13.1453 5.21814 13.2112 5.25591 13.2838 5.28118C13.3565 5.30644 13.4342 5.31867 13.5125 5.31712C13.5907 5.31558 13.6678 5.30029 13.739 5.27218C13.8102 5.24408 13.874 5.20374 13.9267 5.15362L16.4079 2.99583C16.4359 2.97383 16.4602 2.94859 16.4801 2.92082C16.49 2.90943 16.4978 2.89678 16.5032 2.88332C16.5155 2.8675 16.5261 2.85077 16.535 2.83331L16.5523 2.7833C16.5625 2.77162 16.5712 2.75905 16.5783 2.7458C16.5931 2.68142 16.5931 2.61515 16.5783 2.55077C16.5796 2.53579 16.5796 2.52075 16.5783 2.50577L16.561 2.45576L16.5292 2.40825C16.5238 2.39479 16.516 2.38214 16.5061 2.37075C16.4854 2.34267 16.4612 2.31667 16.4339 2.29324L13.9209 0.142948C13.8129 0.051322 13.6677 0 13.5165 0C13.3653 0 13.2201 0.051322 13.1121 0.142948C13.0045 0.236642 12.9442 0.363385 12.9442 0.495495C12.9442 0.627606 13.0045 0.754349 13.1121 0.848043L14.6719 2.20073C10.9987 2.46545 7.5437 3.81991 4.89099 6.03518C2.23828 8.25044 0.550551 11.1906 0.113103 14.3587C-0.324346 17.5268 0.515316 20.7284 2.49015 23.4225C4.46499 26.1165 7.45387 28.1377 10.9516 29.1444C11.0103 29.1611 11.0717 29.1695 11.1335 29.1694C11.271 29.1697 11.4042 29.1275 11.509 29.0505C11.6139 28.9734 11.6835 28.8666 11.7054 28.749C11.7274 28.6315 11.7001 28.5111 11.6287 28.4094C11.5572 28.3077 11.4461 28.2314 11.3155 28.1942Z" fill="white"/>
</svg>
