<svg width="32" height="32" viewBox="0 0 32 32" fill="none" xmlns="http://www.w3.org/2000/svg">
<path d="M15.9828 0.000109792C15.7724 0.00218027 15.5645 0.0458648 15.3709 0.128739C15.1774 0.211613 15.002 0.332038 14.8548 0.483069C14.7076 0.634101 14.5916 0.812886 14.5132 1.00903C14.4349 1.20517 14.3958 1.41483 14.3983 1.62615V14.487C14.3984 14.9136 14.5672 15.3228 14.8676 15.6244C15.1679 15.926 15.5753 16.0954 16 16.0954C16.4247 16.0954 16.8321 15.926 17.1324 15.6244C17.4328 15.3228 17.6016 14.9136 17.6017 14.487V1.62615C17.6042 1.41192 17.564 1.19932 17.4836 1.00091C17.4031 0.802497 17.2839 0.622198 17.1331 0.470705C16.9823 0.319211 16.8028 0.199603 16.6053 0.118773C16.4077 0.0379439 16.1961 -0.00239384 15.9828 0.000109792ZM25.3181 3.22396C25.266 3.22245 25.2138 3.22349 25.1618 3.2271C24.8455 3.25407 24.5442 3.375 24.2965 3.57442C24.0487 3.77383 23.8656 4.04269 23.7704 4.34693C23.6753 4.65117 23.6724 4.97705 23.7621 5.28295C23.8518 5.58885 24.0301 5.86103 24.2742 6.06488C27.0461 8.4291 28.7997 11.948 28.7997 15.8996C28.7997 23.0346 23.0955 28.7856 16.0078 28.7856C8.92009 28.7856 3.20342 23.0346 3.20343 15.8996C3.20344 11.9709 4.93475 8.47586 7.67887 6.11194C7.83874 5.97487 7.97017 5.80746 8.06565 5.61938C8.16112 5.4313 8.21878 5.22619 8.23533 5.01573C8.25188 4.80526 8.227 4.59368 8.16209 4.39288C8.09719 4.19208 7.99355 4.00609 7.85708 3.84552C7.72061 3.68494 7.55399 3.55293 7.36673 3.45704C7.17948 3.36115 6.97524 3.30313 6.7657 3.28652C6.55616 3.26991 6.34542 3.29496 6.1455 3.36016C5.94558 3.42535 5.76041 3.52943 5.60055 3.6665C2.17503 6.61743 1.50577e-05 11.0159 0 15.8996C-1.43924e-05 24.769 7.18765 32 16.0078 32C24.828 32 32 24.769 32 15.8996C32 10.9875 29.8035 6.57086 26.3432 3.61945C26.0586 3.3703 25.6955 3.23023 25.3181 3.22396Z" fill="#E51C19"/>
</svg>
