<svg width="32" height="32" viewBox="0 0 32 32" fill="none" xmlns="http://www.w3.org/2000/svg">
<path d="M6.46017 21.2714C9.6164 25.0443 13.4158 28.0149 17.7523 30.1169C19.4034 30.8993 21.6114 31.8276 24.0714 31.9867C24.2239 31.9934 24.3698 32 24.5223 32C26.1734 32 27.4995 31.4298 28.5803 30.2561C28.587 30.2495 28.6002 30.2362 28.6069 30.223C28.9915 29.7588 29.4291 29.3411 29.8866 28.8968C30.1983 28.5984 30.5165 28.2868 30.8215 27.9685C32.2339 26.4965 32.2339 24.6266 30.8083 23.201L26.8232 19.2159C26.1469 18.5131 25.3379 18.1417 24.4892 18.1417C23.6404 18.1417 22.8249 18.5131 22.1286 19.2093L19.7548 21.5831C19.536 21.4571 19.3106 21.3444 19.0984 21.2383C18.8331 21.1057 18.5878 20.9797 18.369 20.8404C16.2074 19.4679 14.2447 17.6776 12.3682 15.3767C11.42 14.1765 10.7834 13.1687 10.3392 12.1409C10.9624 11.5773 11.546 10.9872 12.1096 10.4103C12.3085 10.2047 12.514 9.99917 12.7196 9.79362C13.4357 9.0775 13.8203 8.24865 13.8203 7.40655C13.8203 6.56444 13.4423 5.7356 12.7196 5.01948L10.7436 3.04351C10.5116 2.81144 10.2927 2.58599 10.0673 2.35392C9.62967 1.90303 9.17214 1.43887 8.72125 1.02114C8.03829 0.35143 7.23596 0 6.38723 0C5.54512 0 4.73617 0.35143 4.02668 1.02777L1.54678 3.50767C0.644999 4.40945 0.134431 5.50352 0.0283392 6.77C-0.097645 8.35474 0.194108 10.039 0.950014 12.0746C2.11039 15.2242 3.86091 18.1484 6.46017 21.2714ZM1.64624 6.90924C1.72581 6.02735 2.06398 5.29134 2.70053 4.65479L5.16717 2.18815C5.55175 1.81683 5.97612 1.62453 6.38723 1.62453C6.7917 1.62453 7.20281 1.81683 7.58076 2.20141C8.02502 2.61252 8.44276 3.04351 8.89365 3.50104C9.1191 3.73311 9.35117 3.96519 9.58325 4.2039L11.5592 6.17986C11.9703 6.59097 12.1825 7.0087 12.1825 7.41981C12.1825 7.83092 11.9703 8.24865 11.5592 8.65976C11.3537 8.86531 11.1481 9.0775 10.9426 9.28305C10.3259 9.90634 9.74902 10.4965 9.11247 11.0601C9.09921 11.0734 9.09257 11.08 9.07931 11.0932C8.52896 11.6436 8.61516 12.1674 8.74778 12.5653C8.75441 12.5852 8.76104 12.5984 8.76767 12.6183C9.27824 13.845 9.98773 15.012 11.0951 16.4045C13.0843 18.8579 15.1796 20.7609 17.4871 22.2263C17.7722 22.4119 18.0772 22.5578 18.3624 22.7037C18.6276 22.8363 18.8729 22.9623 19.0917 23.1015C19.1183 23.1148 19.1382 23.1281 19.1647 23.1413C19.3835 23.254 19.5957 23.3071 19.8079 23.3071C20.3383 23.3071 20.6831 22.9689 20.7958 22.8562L23.2757 20.3763C23.6603 19.9917 24.0781 19.7862 24.4892 19.7862C24.9931 19.7862 25.4042 20.0978 25.6628 20.3763L29.6612 24.368C30.4569 25.1637 30.4502 26.0257 29.6413 26.8678C29.3628 27.1662 29.071 27.4513 28.7594 27.7497C28.2952 28.2006 27.8112 28.6647 27.3736 29.1886C26.611 30.0108 25.7026 30.3954 24.529 30.3954C24.4162 30.3954 24.2969 30.3887 24.1842 30.3821C22.0093 30.2429 19.9869 29.3941 18.4685 28.6714C14.3441 26.6755 10.7237 23.8442 7.72001 20.2503C5.24674 17.2731 3.58242 14.5014 2.48172 11.5309C1.79875 9.70742 1.54015 8.24202 1.64624 6.90924Z" fill="white"/>
</svg>
