<svg width="32" height="32" viewBox="0 0 32 32" fill="none" xmlns="http://www.w3.org/2000/svg">
<path d="M25.0403 32H6.95975C3.116 32 0 28.884 0 25.0403V6.95975C0 3.116 3.116 0 6.95975 0H25.0403C28.884 0 32 3.116 32 6.95975V25.0403C32 28.884 28.884 32 25.0403 32Z" fill="#00B771"/>
<mask id="mask0_177_179" style="mask-type:luminance" maskUnits="userSpaceOnUse" x="0" y="0" width="32" height="32">
<path d="M25.0403 32H6.95975C3.116 32 0 28.884 0 25.0403V6.95975C0 3.116 3.116 0 6.95975 0H25.0403C28.884 0 32 3.116 32 6.95975V25.0403C32 28.884 28.884 32 25.0403 32Z" fill="white"/>
</mask>
<g mask="url(#mask0_177_179)">
<path d="M25.0403 32H6.95975C3.116 32 0 28.884 0 25.0403V6.95975C0 3.116 3.116 0 6.95975 0H25.0403C28.884 0 32 3.116 32 6.95975V25.0403C32 28.884 28.884 32 25.0403 32Z" fill="#00B771"/>
</g>
<mask id="mask1_177_179" style="mask-type:luminance" maskUnits="userSpaceOnUse" x="0" y="0" width="32" height="32">
<path d="M25.0403 32H6.95975C3.116 32 0 28.884 0 25.0403V6.95975C0 3.116 3.116 0 6.95975 0H25.0403C28.884 0 32 3.116 32 6.95975V25.0403C32 28.884 28.884 32 25.0403 32Z" fill="white"/>
</mask>
<g mask="url(#mask1_177_179)">
<path d="M24.5346 20.3945V24.0225C24.5346 24.269 24.3341 24.4682 24.0853 24.4682H22.2886C18.3298 24.4682 14.6076 22.938 11.8076 20.1597C9.00758 17.3815 7.46558 13.6882 7.46558 9.75999V7.97749C7.46558 7.73074 7.66608 7.53174 7.91483 7.53174H11.5143C11.9816 7.53174 12.3858 7.82899 12.5176 8.26574L13.4518 12.1315C13.4878 12.283 13.4428 12.4465 13.3291 12.5565L12.1581 13.6915C11.9306 13.9115 11.8676 14.2472 11.9993 14.5295C12.2508 15.0582 12.5443 15.5725 12.8738 16.0597C13.2811 16.657 13.7483 17.2155 14.2603 17.7267C14.7753 18.2347 15.3383 18.6982 15.9403 19.1025C16.4313 19.4295 16.9493 19.7235 17.4856 19.9702C17.7671 20.101 18.1056 20.0385 18.3271 19.8127L19.6686 18.4547C19.7853 18.336 19.9561 18.2912 20.1178 18.3387L23.8491 19.4172C24.2591 19.5685 24.5346 19.9607 24.5346 20.3945Z" fill="white"/>
</g>
</svg>
