<svg width="32" height="27" viewBox="0 0 32 27" fill="none" xmlns="http://www.w3.org/2000/svg">
<path d="M26.4239 7.79987H24.097V5.39939C24.097 4.02379 23.5625 2.71337 22.5919 1.70966C22.4115 1.52302 22.109 1.51346 21.9164 1.68818C21.7237 1.8629 21.7138 2.15575 21.8942 2.34227C22.6983 3.17386 23.1411 4.25957 23.1411 5.39939V7.79987H13.4154C10.3407 7.79987 7.83925 10.2221 7.83925 13.1993V14.855H7.09062C6.79281 14.855 6.51275 14.9673 6.30206 15.1713L3.76531 17.6276V15.1566C3.76531 14.7781 3.556 14.4223 3.21894 14.2283C1.82306 13.4247 0.955875 11.9506 0.955875 10.3812V5.39939C0.955875 2.93251 3.0285 0.925578 5.57613 0.925578H18.5209C19.118 0.925578 19.6988 1.03409 20.2472 1.2482C20.492 1.34364 20.7705 1.22902 20.8692 0.992028C20.9679 0.754975 20.8494 0.485302 20.6046 0.389742C19.9422 0.131084 19.2411 0 18.5209 0H5.57613C2.50144 0 0 2.42215 0 5.39939V10.3812C0 12.2754 1.04625 14.0543 2.73044 15.0239C2.77919 15.052 2.80944 15.1028 2.80944 15.1567V17.8511C2.80944 18.1892 3.01788 18.4913 3.3405 18.6207C3.55581 18.721 3.99544 18.7065 4.27806 18.4402L6.97794 15.8258C7.00806 15.7967 7.04806 15.7806 7.09062 15.7806H7.83925V18.1811C7.83925 18.9099 7.98675 19.6171 8.27763 20.283C8.38044 20.5184 8.66088 20.6283 8.904 20.529C9.14713 20.4294 9.26081 20.1579 9.15806 19.9224C8.91731 19.3712 8.79519 18.7854 8.79519 18.1812V13.1994C8.79519 10.7324 10.8678 8.72551 13.4154 8.72551H26.4239C28.9715 8.72551 31.0441 10.7324 31.0441 13.1994V18.1812C31.0441 19.7566 30.2122 21.1866 28.8186 22.0063C28.4902 22.1996 28.2861 22.5522 28.2861 22.9266V25.945L25.215 22.9712C25.0044 22.7673 24.7243 22.6549 24.4264 22.6549H13.4154C12.2559 22.6549 11.1473 22.2373 10.2934 21.4792C10.0989 21.3065 9.79662 21.3191 9.61812 21.5074C9.43969 21.6958 9.45275 21.9886 9.64731 22.1613C10.6779 23.0766 12.016 23.5806 13.4153 23.5806H24.4263C24.4683 23.5806 24.5093 23.597 24.5389 23.6258L27.7733 26.7576C28.023 26.9434 28.2671 27.0871 28.7108 26.9381C29.0334 26.8087 29.2418 26.5066 29.2418 26.1685V22.9265C29.2418 22.8733 29.2698 22.8238 29.3148 22.7973C30.9962 21.8083 32 20.0826 32 18.1811V13.1993C32 10.2221 29.4986 7.79987 26.4239 7.79987Z" fill="white"/>
<path d="M18.5707 18.8369C18.2904 18.4535 17.7799 18.1964 17.1976 18.1964C16.3146 18.1964 15.5964 18.7873 15.5964 19.5138C15.5964 20.2401 16.3147 20.8311 17.1976 20.8311C17.9723 20.8311 18.6201 20.376 18.7673 19.7737C19.4723 19.4862 20.0273 18.9133 20.2682 18.1885C20.9662 18.0346 21.4889 17.4291 21.4889 16.7072V15.0384C21.4889 14.3416 21.0017 13.7532 20.34 13.5748C20.1842 12.6453 19.7125 11.7924 18.9893 11.1478C18.1824 10.4285 17.1336 10.0324 16.0362 10.0324C13.8768 10.0324 12.0706 11.5386 11.7321 13.5748C11.0706 13.7534 10.5836 14.3417 10.5836 15.0384V16.7072C10.5836 17.545 11.2876 18.2266 12.1528 18.2266C13.0181 18.2266 13.722 17.545 13.722 16.7072V15.0384C13.722 14.3851 13.2939 13.8268 12.6952 13.6125C13.0051 12.0793 14.3892 10.958 16.0362 10.958C17.6624 10.958 19.064 12.0989 19.3761 13.613C18.7779 13.8276 18.3505 14.3855 18.3505 15.0384V16.7072C18.3505 17.3247 18.7331 17.857 19.2807 18.0945C19.1288 18.4106 18.8789 18.6689 18.5707 18.8369ZM17.1976 19.9056C16.8172 19.9056 16.5522 19.6991 16.5522 19.5138C16.5522 19.3285 16.8172 19.122 17.1976 19.122C17.5779 19.122 17.8429 19.3285 17.8429 19.5138C17.8429 19.6991 17.5778 19.9056 17.1976 19.9056ZM12.7661 16.7073C12.7661 17.0348 12.491 17.3012 12.1528 17.3012C11.8146 17.3012 11.5395 17.0348 11.5395 16.7073V15.0385C11.5395 14.711 11.8146 14.4446 12.1528 14.4446C12.491 14.4446 12.7661 14.711 12.7661 15.0385V16.7073ZM19.3064 15.0385C19.3064 14.711 19.5815 14.4446 19.9197 14.4446C20.2579 14.4446 20.533 14.711 20.533 15.0385V16.7073C20.533 17.0348 20.2579 17.3012 19.9197 17.3012C19.5815 17.3012 19.3064 17.0348 19.3064 16.7073V15.0385Z" fill="white"/>
<path d="M22.7307 12.6553H26.5377C26.8016 12.6553 27.0156 12.4482 27.0156 12.1925C27.0156 11.9369 26.8016 11.7297 26.5377 11.7297H22.7307C22.4668 11.7297 22.2528 11.9369 22.2528 12.1925C22.2528 12.4482 22.4668 12.6553 22.7307 12.6553Z" fill="white"/>
<path d="M22.7307 14.7271H25.6662C25.9301 14.7271 26.1441 14.5199 26.1441 14.2643C26.1441 14.0086 25.9301 13.8015 25.6662 13.8015H22.7307C22.4668 13.8015 22.2528 14.0086 22.2528 14.2643C22.2528 14.5199 22.4668 14.7271 22.7307 14.7271Z" fill="white"/>
<path d="M4.70206 6.74327C5.0956 6.74327 5.41463 6.43435 5.41463 6.05329C5.41463 5.67223 5.0956 5.36331 4.70206 5.36331C4.30853 5.36331 3.9895 5.67223 3.9895 6.05329C3.9895 6.43435 4.30853 6.74327 4.70206 6.74327Z" fill="white"/>
<path d="M6.86015 6.74327C7.25368 6.74327 7.57271 6.43435 7.57271 6.05329C7.57271 5.67223 7.25368 5.36331 6.86015 5.36331C6.46661 5.36331 6.14758 5.67223 6.14758 6.05329C6.14758 6.43435 6.46661 6.74327 6.86015 6.74327Z" fill="white"/>
<path d="M9.00565 6.74327C9.39919 6.74327 9.71822 6.43435 9.71822 6.05329C9.71822 5.67223 9.39919 5.36331 9.00565 5.36331C8.61212 5.36331 8.29309 5.67223 8.29309 6.05329C8.29309 6.43435 8.61212 6.74327 9.00565 6.74327Z" fill="white"/>
</svg>
