<svg width="40" height="50" viewBox="0 0 40 50" fill="none" xmlns="http://www.w3.org/2000/svg">
<path d="M28.0121 29.8516H11.9851C5.26422 30.4688 0 36.1488 0 43.0672C0 49.6755 4.80279 50 11.0927 50C11.779 50 12.4825 49.9966 13.202 49.9966H26.7986C27.5131 49.9966 28.2182 50 28.9046 50C35.1945 50 40 49.6761 40 43.0672C39.9978 36.1483 34.733 30.4677 28.0121 29.8516Z" fill="white"/>
<path d="M22.4263 23.0217H24.4466C25.1125 23.0217 25.7458 23.2495 26.2559 23.6551C27.4186 23.4984 28.5166 23.1945 29.4683 22.7806C29.7429 22.3717 29.9816 21.9373 30.2016 21.4923V17.0473C30.2016 16.0423 30.5735 15.1062 31.2184 14.3929C30.2762 9.01563 25.6176 4.92786 19.9986 4.92786C14.3813 4.92786 9.72163 9.01619 8.77942 14.3934C9.42377 15.1062 9.79623 16.0423 9.79623 17.0473V21.4923C11.6646 25.2623 15.5258 27.8579 19.9981 27.8579C20.0677 27.8579 20.1351 27.849 20.2042 27.8473C19.7726 27.3345 19.5018 26.6812 19.5018 25.959C19.5024 24.3395 20.8143 23.0217 22.4263 23.0217Z" fill="white"/>
<path d="M5.72951 24.705H5.85717C7.2586 24.705 8.39589 23.5617 8.39589 22.1478V17.0467C8.39589 16.0444 7.82061 15.1811 6.9834 14.7628C7.34536 7.86 13.0439 2.35722 19.9981 2.35722C26.9522 2.35722 32.653 7.85944 33.0138 14.7628C32.1766 15.1806 31.6019 16.0444 31.6019 17.0467V22.1478C31.6019 22.4867 31.6676 22.8022 31.7826 23.0978C30.3021 24.1606 28.1486 24.9194 25.7232 25.1294C25.4485 24.71 24.9804 24.4294 24.4455 24.4294H22.4251C21.583 24.4294 20.9021 25.115 20.9021 25.9583C20.9021 26.8028 21.5824 27.4894 22.4251 27.4894H24.4455C25.034 27.4894 25.5358 27.1522 25.7889 26.6633C28.605 26.44 31.0537 25.5756 32.774 24.2972C33.168 24.5539 33.6355 24.7044 34.14 24.7044H34.2672C35.6702 24.7044 36.8053 23.5611 36.8053 22.1472V17.0461C36.8053 16.03 36.2129 15.1528 35.358 14.7456C34.9856 6.55444 28.2392 0 19.9986 0C11.758 0 5.01056 6.55444 4.64086 14.7467C3.78486 15.1533 3.1908 16.0311 3.1908 17.0472V22.1483C3.1908 23.5617 4.32918 24.705 5.72951 24.705Z" fill="white"/>
</svg>
