<svg width="50" height="48" viewBox="0 0 50 48" fill="none" xmlns="http://www.w3.org/2000/svg">
<path fill-rule="evenodd" clip-rule="evenodd" d="M30.0449 43.9941C30.0449 42.266 28.6439 40.865 26.9158 40.865H23.0842C22.2543 40.865 21.4584 41.1947 20.8716 41.7815C20.2848 42.3684 19.9551 43.1643 19.9551 43.9941C19.9551 45.7223 21.3561 47.1232 23.0842 47.1232H26.9158C28.6439 47.1232 30.0449 45.7223 30.0449 43.9941ZM6.57822 35.9255C7.10088 35.9654 7.7332 35.9884 8.36836 35.9512C8.70674 37.6672 9.54736 39.2588 10.8021 40.5137C12.468 42.1794 14.7272 43.1152 17.083 43.1152H18.277C18.2243 43.4033 18.1973 43.6974 18.1973 43.9941C18.1973 44.2942 18.2243 44.5881 18.2762 44.873H17.083C14.261 44.873 11.5546 43.752 9.55918 41.7566C7.96729 40.1646 6.93184 38.1202 6.57822 35.9255ZM5.68408 34.0551C4.29629 33.8211 3.00488 33.1613 1.99678 32.1531C0.718262 30.8746 0 29.1405 0 27.3324V23.1778C0 21.3697 0.718262 19.6356 1.99678 18.3571C3.27529 17.0786 5.00937 16.3603 6.81748 16.3603H7.27129C7.99668 7.20439 15.657 0 25 0C34.343 0 42.0033 7.20439 42.7287 16.3603H43.1825C44.9906 16.3603 46.7247 17.0786 48.0032 18.3571C49.2817 19.6356 50 21.3697 50 23.1778V27.3324C50 29.1405 49.2817 30.8746 48.0032 32.1531C46.7247 33.4317 44.9906 34.15 43.1825 34.15H41.1707C40.3363 34.15 39.66 33.4735 39.66 32.6393V17.785C39.66 9.68848 33.0965 3.125 25 3.125C16.9035 3.125 10.34 9.68848 10.34 17.785V32.6393C10.34 33.2283 10.0028 33.7388 9.51084 33.9879C8.15654 34.4578 6.05625 34.1179 5.68408 34.0551Z" fill="white"/>
</svg>
