<svg width="32" height="32" viewBox="0 0 32 32" fill="none" xmlns="http://www.w3.org/2000/svg">
<path d="M1.95918 13.3749H30.0408C31.1229 13.3749 32 14.2682 32 15.3705V30.0045C32 31.1067 31.1229 32 30.0408 32H1.95918C0.877061 32 0 31.1067 0 30.0045V15.3705C0 14.2682 0.877061 13.3749 1.95918 13.3749Z" fill="#1573FF"/>
<path d="M11.8638 15.43C11.7175 16.1494 12.1717 16.8535 12.8783 17.0021C13.1886 17.0677 13.5115 17.0158 13.7871 16.8568L17.1869 14.8935C17.3868 14.7781 17.6313 14.7781 17.8312 14.8935L21.231 16.8568C21.8586 17.2193 22.6557 16.9948 23.0116 16.3556C23.168 16.0749 23.2186 15.7459 23.1543 15.43L22.737 13.3749H12.2811L11.8638 15.43Z" fill="#1855CA"/>
<path d="M16.6531 18.6964H17.3061C17.6669 18.6964 17.9592 18.994 17.9592 19.3615V26.6785C17.9592 27.0461 17.6669 27.3437 17.3061 27.3437H16.6531C16.2922 27.3437 16 27.0461 16 26.6785V19.3615C16 18.994 16.2922 18.6964 16.6531 18.6964Z" fill="#1855CA"/>
<path d="M23.4184 18.6964H20.8979C20.5371 18.6964 20.2449 18.994 20.2449 19.3615V26.6785C20.2449 27.0461 20.5371 27.3437 20.8979 27.3437H21.551C21.9118 27.3437 22.2041 27.0461 22.2041 26.6785V24.683H23.5102C25.134 24.6827 26.4503 23.3417 26.4499 21.6873C26.4499 21.5393 26.4392 21.3917 26.4176 21.2457C26.173 19.7583 24.8992 18.6754 23.4184 18.6964ZM23.4622 22.6875H22.2041V20.6919H23.5102C24.0516 20.6922 24.4904 21.1392 24.4901 21.691C24.4901 21.7529 24.4845 21.8147 24.4731 21.8759C24.3703 22.3579 23.9464 22.6981 23.4622 22.6875Z" fill="#1855CA"/>
<path d="M11.1379 26.8984L13.6521 19.5814C13.7713 19.2345 13.5921 18.855 13.2515 18.7339C13.1823 18.709 13.1091 18.6964 13.0357 18.6964H12.3428C12.0652 18.6964 11.818 18.875 11.7263 19.142L10.0048 24.1575L8.28398 19.142C8.19223 18.875 7.94504 18.6964 7.66749 18.6964H6.97459C6.61378 18.6964 6.32153 18.994 6.32153 19.3615C6.32153 19.4364 6.33394 19.5105 6.3581 19.5814L8.87239 26.8984C8.96415 27.1651 9.21133 27.3437 9.48888 27.3437H10.5214C10.7989 27.3437 11.0461 27.1651 11.1379 26.8984Z" fill="#1855CA"/>
<path d="M16.3266 18.3638H16.9797C17.3405 18.3638 17.6328 18.6614 17.6328 19.029V26.346C17.6328 26.7135 17.3405 27.0111 16.9797 27.0111H16.3266C15.9658 27.0111 15.6736 26.7135 15.6736 26.346V19.029C15.6736 18.6614 15.9658 18.3638 16.3266 18.3638Z" fill="#F0F5FC"/>
<path d="M23.0919 18.3638H20.5714C20.2106 18.3638 19.9183 18.6614 19.9183 19.029V26.346C19.9183 26.7135 20.2106 27.0111 20.5714 27.0111H21.2245C21.5853 27.0111 21.8775 26.7135 21.8775 26.346V24.3504H23.1836C24.8075 24.3501 26.1237 23.0091 26.1234 21.3548C26.1234 21.2068 26.1126 21.0591 26.0911 20.9131C25.8465 19.4257 24.5727 18.3428 23.0919 18.3638ZM23.1356 22.3549H21.8775V20.3593H23.1836C23.725 20.3596 24.1639 20.8067 24.1636 21.3584C24.1636 21.4203 24.158 21.4821 24.1466 21.543C24.0437 22.0253 23.6199 22.3655 23.1356 22.3549Z" fill="#F0F5FC"/>
<path d="M10.8114 26.5658L13.3257 19.2488C13.4449 18.9019 13.2656 18.5224 12.9251 18.4014C12.8559 18.3764 12.7827 18.3638 12.7092 18.3638H12.0163C11.7388 18.3638 11.4916 18.5424 11.3999 18.8094L9.67838 23.8249L7.95757 18.8094C7.86581 18.5424 7.61863 18.3638 7.34108 18.3638H6.64818C6.28736 18.3638 5.99512 18.6614 5.99512 19.029C5.99512 19.1038 6.00753 19.178 6.03169 19.2488L8.54597 26.5658C8.63773 26.8325 8.88491 27.0111 9.16246 27.0111H10.195C10.4725 27.0111 10.7197 26.8325 10.8114 26.5658Z" fill="#F0F5FC"/>
<path d="M3.14548 8.32152L3.57062 9.2744C3.60033 9.34125 3.66238 9.38714 3.73421 9.39513L4.75723 9.51087C4.86956 9.52351 4.95021 9.62661 4.9378 9.74069C4.93225 9.79124 4.90907 9.8378 4.87217 9.87173L4.11233 10.5745C4.05878 10.6241 4.03495 10.6985 4.04964 10.7707L4.25731 11.7934C4.28017 11.9059 4.20899 12.0163 4.09862 12.0396C4.04997 12.0499 3.99968 12.0416 3.95658 12.0169L3.06058 11.4994C2.99821 11.4632 2.92148 11.4632 2.85911 11.4994L1.96278 12.0169C1.8645 12.0735 1.73976 12.0386 1.68425 11.9384C1.65976 11.8945 1.65193 11.843 1.66205 11.7938L1.86972 10.7711C1.88442 10.6989 1.86058 10.6244 1.80703 10.5748L1.04719 9.87206C0.9636 9.7949 0.957396 9.66319 1.03348 9.57805C1.06678 9.54047 1.11282 9.51685 1.16213 9.5112L2.18515 9.39546C2.25666 9.38748 2.3187 9.34158 2.34874 9.27473L2.77389 8.32186C2.82058 8.21709 2.94172 8.17086 3.04425 8.21842C3.08899 8.23904 3.12491 8.27563 3.14548 8.32152Z" fill="#FFE161"/>
<path d="M29.2267 8.32152L29.6518 9.2744C29.6816 9.34125 29.7436 9.38714 29.8154 9.39513L30.8384 9.51087C30.9508 9.52351 31.0314 9.62661 31.019 9.74069C31.0135 9.79124 30.9903 9.8378 30.9534 9.87173L30.1936 10.5745C30.14 10.6241 30.1162 10.6985 30.1309 10.7707L30.3385 11.7934C30.3614 11.9059 30.2902 12.0163 30.1798 12.0396C30.1312 12.0499 30.0809 12.0416 30.0378 12.0169L29.1418 11.4994C29.0794 11.4632 29.0027 11.4632 28.9403 11.4994L28.0443 12.0169C27.946 12.0735 27.8213 12.0386 27.7658 11.9384C27.7413 11.8945 27.7335 11.843 27.7436 11.7938L27.9513 10.7711C27.966 10.6989 27.9421 10.6244 27.8886 10.5748L27.1287 9.87206C27.0451 9.7949 27.0389 9.66319 27.115 9.57805C27.1483 9.54047 27.1944 9.51685 27.2437 9.5112L28.2667 9.39546C28.3382 9.38748 28.4002 9.34158 28.4303 9.27473L28.8554 8.32186C28.9021 8.21709 29.0233 8.17086 29.1258 8.21842C29.1699 8.23904 29.2061 8.27563 29.2267 8.32152Z" fill="#FFE161"/>
<path d="M17.1892 0.780025L18.8022 4.39595C18.8976 4.60948 19.0961 4.75582 19.3247 4.78176L23.2026 5.22011C23.9196 5.30126 24.4362 5.9588 24.3565 6.68917C24.3216 7.01111 24.172 7.30912 23.9366 7.5273L21.1696 10.0876C20.9296 10.3094 20.8228 10.644 20.8884 10.9673L21.6453 14.6946C21.7916 15.414 21.3374 16.1181 20.6308 16.2668C20.3206 16.3323 19.9977 16.2804 19.7221 16.1214L16.3222 14.1578C16.1224 14.0424 15.8778 14.0424 15.678 14.1578L12.2782 16.1211C11.6506 16.4836 10.8535 16.2591 10.4976 15.6199C10.3412 15.3392 10.2906 15.0103 10.3549 14.6943L11.1422 10.8173C11.1888 10.5868 11.1128 10.3483 10.9417 10.1904L8.0633 7.5273C7.52942 7.0334 7.48958 6.19194 7.97481 5.64816C8.18869 5.40836 8.48126 5.25603 8.79767 5.22045L12.6755 4.78209C12.9041 4.75615 13.1026 4.60981 13.198 4.39629L14.8111 0.780357C15.1095 0.111517 15.8837 -0.184489 16.5404 0.119499C16.8277 0.252203 17.0582 0.487012 17.1892 0.780025Z" fill="#FFE161"/>
<path d="M32 30.0045V15.3705C32 15.0239 31.9109 14.683 31.7414 14.3823C30.6034 18.259 25.184 32 5.55103 32H30.0408C31.1229 32 32 31.1067 32 30.0045Z" fill="#1855CA"/>
<path d="M16.3224 14.1578L19.7222 16.1211C20.3498 16.4836 21.1469 16.2591 21.5028 15.6199C21.6592 15.3392 21.7098 15.0103 21.6455 14.6943L20.8886 10.967C20.8229 10.6437 20.9297 10.3091 21.1697 10.0872L23.9367 7.52696C24.4716 7.0314 24.5111 6.18829 24.0246 5.6435C23.9465 5.55636 23.8577 5.47987 23.7601 5.41634C22.2874 7.80235 18.3909 12.6618 10.4151 14.3986L10.355 14.6943C10.2087 15.4137 10.6629 16.1178 11.3696 16.2665C11.6798 16.332 12.0027 16.2801 12.2783 16.1211L15.6781 14.1578C15.8776 14.0424 16.1225 14.0424 16.3224 14.1578Z" fill="#FBBC05"/>
<path d="M30.3382 11.7938L30.1306 10.7711C30.1159 10.6989 30.1397 10.6244 30.1933 10.5748L30.9531 9.87206C31.0367 9.7949 31.0429 9.6632 30.9668 9.57805C30.9332 9.54047 30.8875 9.51686 30.8382 9.5112L30.7879 9.50555C30.0205 10.7923 28.6246 11.3461 27.7877 11.5703L27.7423 11.7938C27.7195 11.9062 27.7903 12.0163 27.901 12.0399C27.9497 12.0502 28 12.0419 28.0434 12.0173L28.9397 11.4998C29.0021 11.4635 29.0788 11.4635 29.1412 11.4998L30.0375 12.0173C30.1358 12.0738 30.2605 12.0389 30.316 11.9388C30.3405 11.8945 30.3484 11.843 30.3382 11.7938Z" fill="#FBBC05"/>
<path d="M4.25743 11.7938L4.04976 10.7711C4.03506 10.6989 4.0589 10.6244 4.11245 10.5748L4.87229 9.87206C4.95588 9.7949 4.96208 9.6632 4.886 9.57805C4.85237 9.54047 4.80665 9.51686 4.75735 9.5112L4.70706 9.50555C3.93972 10.7923 2.5438 11.3461 1.7069 11.5703L1.66151 11.7938C1.63865 11.9062 1.70951 12.0163 1.8202 12.0399C1.86886 12.0502 1.91914 12.0419 1.96257 12.0173L2.8589 11.4998C2.92127 11.4635 2.998 11.4635 3.06037 11.4998L3.9567 12.0173C4.05498 12.0738 4.17971 12.0389 4.23523 11.9388C4.25939 11.8945 4.26755 11.843 4.25743 11.7938Z" fill="#FBBC05"/>
</svg>
