<svg width="571" height="120" viewBox="0 0 571 120" fill="none" xmlns="http://www.w3.org/2000/svg">
<path d="M1.97183 24.772H0V91.2277H1.97183V24.772Z" fill="white"/>
<path d="M70 23H0V24.7722H70V23Z" fill="white"/>
<path d="M70 91.0815H0V92.9999H70V91.0815Z" fill="white"/>
<path d="M69.9999 24.772H68.0281V91.2277H69.9999V24.772Z" fill="white"/>
<path d="M68.0283 38.0635H1.97192V51.3546H68.0283V38.0635Z" fill="#0B236B"/>
<path d="M68.0283 24.772H1.97192V38.0631H68.0283V24.772Z" fill="#A4DD36"/>
<path d="M68.0283 51.3545H1.97192V64.6456H68.0283V51.3545Z" fill="#A4DD36"/>
<path d="M68.0283 64.6455H1.97192V77.9367H68.0283V64.6455Z" fill="#0B236B"/>
<path d="M68.0283 77.9365H1.97192V91.2277H68.0283V77.9365Z" fill="#A4DD36"/>
<path d="M292.995 92.475C287.992 92.475 283.368 91.6517 279.125 90.005C274.882 88.295 271.177 85.92 268.01 82.88C264.907 79.84 262.5 76.2933 260.79 72.24C259.08 68.1233 258.225 63.6267 258.225 58.75C258.225 53.8733 259.08 49.4083 260.79 45.355C262.5 41.2383 264.938 37.66 268.105 34.62C271.272 31.58 274.945 29.2367 279.125 27.59C283.368 25.88 288.023 25.025 293.09 25.025C297.903 25.025 302.368 25.785 306.485 27.305C310.602 28.825 314.117 31.105 317.03 34.145L313.99 37.375C311.077 34.525 307.878 32.4983 304.395 31.295C300.975 30.0917 297.238 29.49 293.185 29.49C288.878 29.49 284.888 30.2183 281.215 31.675C277.542 33.1317 274.343 35.19 271.62 37.85C268.897 40.51 266.775 43.6133 265.255 47.16C263.798 50.7067 263.07 54.57 263.07 58.75C263.07 62.93 263.798 66.7933 265.255 70.34C266.775 73.8867 268.897 76.99 271.62 79.65C274.343 82.31 277.542 84.3683 281.215 85.825C284.888 87.2817 288.878 88.01 293.185 88.01C297.112 88.01 300.817 87.4083 304.3 86.205C307.847 85.0017 311.077 83.0067 313.99 80.22L316.745 83.925C313.768 86.775 310.19 88.9283 306.01 90.385C301.893 91.7783 297.555 92.475 292.995 92.475ZM312.09 83.45V59.035H316.745V83.925L312.09 83.45ZM336.547 92V42.41H341.107V55.995L340.632 54.475C342.025 50.485 344.368 47.4133 347.662 45.26C350.955 43.1067 355.072 42.03 360.012 42.03V46.685C359.822 46.685 359.632 46.685 359.442 46.685C359.252 46.6217 359.062 46.59 358.872 46.59C353.362 46.59 349.055 48.3317 345.952 51.815C342.848 55.235 341.297 60.0167 341.297 66.16V92H336.547ZM392.015 92.38C387.265 92.38 383.022 91.3033 379.285 89.15C375.612 86.9967 372.667 84.02 370.45 80.22C368.297 76.42 367.22 72.0817 367.22 67.205C367.22 62.265 368.297 57.9267 370.45 54.19C372.667 50.39 375.612 47.4133 379.285 45.26C383.022 43.1067 387.265 42.03 392.015 42.03C396.765 42.03 401.009 43.1067 404.745 45.26C408.482 47.4133 411.427 50.39 413.58 54.19C415.734 57.9267 416.81 62.265 416.81 67.205C416.81 72.0817 415.734 76.42 413.58 80.22C411.427 84.02 408.482 86.9967 404.745 89.15C401.009 91.3033 396.765 92.38 392.015 92.38ZM392.015 88.105C395.815 88.105 399.235 87.25 402.275 85.54C405.315 83.7667 407.69 81.2967 409.4 78.13C411.11 74.9633 411.965 71.3217 411.965 67.205C411.965 63.025 411.11 59.3833 409.4 56.28C407.69 53.1133 405.315 50.675 402.275 48.965C399.235 47.1917 395.815 46.305 392.015 46.305C388.215 46.305 384.795 47.1917 381.755 48.965C378.779 50.675 376.404 53.1133 374.63 56.28C372.92 59.3833 372.065 63.025 372.065 67.205C372.065 71.3217 372.92 74.9633 374.63 78.13C376.404 81.2967 378.779 83.7667 381.755 85.54C384.795 87.25 388.215 88.105 392.015 88.105ZM451.687 92.38C447.443 92.38 443.77 91.62 440.667 90.1C437.563 88.5167 435.157 86.1733 433.447 83.07C431.8 79.9033 430.977 76.0083 430.977 71.385V42.41H435.727V71.005C435.727 76.5783 437.152 80.8217 440.002 83.735C442.852 86.6483 446.873 88.105 452.067 88.105C455.803 88.105 459.033 87.3133 461.757 85.73C464.48 84.1467 466.57 81.93 468.027 79.08C469.483 76.1667 470.212 72.7467 470.212 68.82V42.41H474.962V92H470.402V78.225L471.067 79.84C469.61 83.7033 467.172 86.775 463.752 89.055C460.395 91.2717 456.373 92.38 451.687 92.38ZM519.986 92.38C515.616 92.38 511.658 91.3667 508.111 89.34C504.628 87.3133 501.841 84.4317 499.751 80.695C497.725 76.895 496.711 72.3983 496.711 67.205C496.711 62.0117 497.725 57.5467 499.751 53.81C501.841 50.01 504.628 47.0967 508.111 45.07C511.658 43.0433 515.616 42.03 519.986 42.03C524.673 42.03 528.853 43.1067 532.526 45.26C536.263 47.35 539.176 50.295 541.266 54.095C543.42 57.895 544.496 62.265 544.496 67.205C544.496 72.145 543.42 76.515 541.266 80.315C539.176 84.115 536.263 87.0917 532.526 89.245C528.853 91.335 524.673 92.38 519.986 92.38ZM495.096 110.43V42.41H499.656V58.655L498.896 67.3L499.846 75.945V110.43H495.096ZM519.701 88.105C523.501 88.105 526.921 87.25 529.961 85.54C533.001 83.7667 535.376 81.2967 537.086 78.13C538.86 74.9633 539.746 71.3217 539.746 67.205C539.746 63.025 538.86 59.3833 537.086 56.28C535.376 53.1133 533.001 50.675 529.961 48.965C526.921 47.1917 523.501 46.305 519.701 46.305C515.901 46.305 512.481 47.1917 509.441 48.965C506.465 50.675 504.09 53.1133 502.316 56.28C500.606 59.3833 499.751 63.025 499.751 67.205C499.751 71.3217 500.606 74.9633 502.316 78.13C504.09 81.2967 506.465 83.7667 509.441 85.54C512.481 87.25 515.901 88.105 519.701 88.105Z" fill="#CDD5E0"/>
<mask id="mask0_5_31" style="mask-type:luminance" maskUnits="userSpaceOnUse" x="194" y="24" width="48" height="69">
<path d="M230.554 46.9102C222.693 53.1795 217.571 43.9783 217.571 43.9783L208.955 24.647H194.274L209.56 57.7858L204.116 69.5839C212.396 61.2084 217.571 72.1534 217.571 72.1534L226.629 92.1761H241.45L225.516 57.7859L230.554 46.9102Z" fill="white"/>
</mask>
<g mask="url(#mask0_5_31)">
<path d="M241.45 24.647H194.274V92.1762H241.45V24.647Z" fill="white"/>
</g>
<mask id="mask1_5_31" style="mask-type:luminance" maskUnits="userSpaceOnUse" x="217" y="24" width="24" height="26">
<path d="M217.571 43.9783C217.571 43.9783 222.693 53.1795 230.554 46.9102L240.868 24.647H226.186L217.571 43.9783Z" fill="white"/>
</mask>
<g mask="url(#mask1_5_31)">
<path d="M240.868 24.647H217.571V53.1795H240.868V24.647Z" fill="white"/>
</g>
<mask id="mask2_5_31" style="mask-type:luminance" maskUnits="userSpaceOnUse" x="193" y="66" width="25" height="27">
<path d="M217.571 72.1532C217.571 72.1532 212.396 61.2082 204.116 69.5837L193.692 92.176H208.512L217.571 72.1532Z" fill="white"/>
</mask>
<g mask="url(#mask2_5_31)">
<path d="M217.571 61.208H193.692V92.1757H217.571V61.208Z" fill="white"/>
</g>
<path fill-rule="evenodd" clip-rule="evenodd" d="M201.614 24.647L234.039 92.1762H241.45L225.516 57.7859L230.554 46.9102C222.693 53.1795 217.57 43.9783 217.57 43.9783L208.954 24.647H201.614Z" fill="white"/>
<path fill-rule="evenodd" clip-rule="evenodd" d="M230.554 46.9103C230.554 46.9103 221.471 49.5264 220.145 38.2031L217.571 43.9785C217.571 43.9785 222.693 53.1796 230.554 46.9103Z" fill="white"/>
<path fill-rule="evenodd" clip-rule="evenodd" d="M204.116 69.5837C204.116 69.5837 214.108 64.9133 214.108 79.8067L217.571 72.1532C217.571 72.1532 212.396 61.2082 204.116 69.5837Z" fill="white"/>
<path fill-rule="evenodd" clip-rule="evenodd" d="M220.145 38.2029C220.145 38.2029 227.126 25.9326 236.449 34.185L240.868 24.647H226.186L220.145 38.2029Z" fill="white"/>
<path fill-rule="evenodd" clip-rule="evenodd" d="M214.554 78.6206C214.554 78.6206 207.572 90.8907 198.249 82.6385L193.831 92.1765H208.512L214.554 78.6206Z" fill="white"/>
<path fill-rule="evenodd" clip-rule="evenodd" d="M194.274 24.647L225.516 57.7859L230.554 46.9102C222.693 53.1795 217.571 43.9783 217.571 43.9783L208.955 24.647H194.274Z" fill="white"/>
<path d="M127.818 71.8393C127.818 82.918 121.7 93 106.895 93C100.083 93 95.1196 90.9073 91.6468 87.4841C105.518 90.819 111.037 82.4348 113.043 77.449C113.045 77.4462 113.045 77.4462 113.045 77.4462C113.834 76.3613 114.173 74.9064 114.173 73.1533C114.173 68.8577 112.087 67.1737 105.131 64.8216C89.3122 59.4493 86.7231 52.7021 86.7231 43.2606C86.7231 33.4326 91.7671 23 106.414 23C112.582 23 117.043 24.9435 120.173 27.8699C101.939 23.5245 100.055 40.1135 100.007 40.5719C100.005 40.5802 100.005 40.5829 100.005 40.5829C99.9551 40.9529 99.9311 41.3339 99.9311 41.7203C99.9311 45.0498 101.44 46.6565 109.323 49.1908C125.525 54.3808 127.818 62.0334 127.818 71.8393Z" fill="white"/>
<path d="M113.043 77.4491C111.037 82.435 105.518 90.819 91.647 87.4842C87.5991 83.5033 85.5731 77.7169 85 71.3369H98.2099C99.2259 76.665 102.386 79.6576 107.402 79.6576C110.213 79.6576 112.013 78.8708 113.043 77.4491Z" fill="white"/>
<path d="M126.547 43.1421H113.764C113.333 40.6741 112.137 36.0002 105.815 36.0002C101.945 36.0002 100.354 38.0541 100.007 40.5719C100.055 40.1137 101.939 23.5247 120.173 27.8699C124.519 31.9282 126.305 37.8747 126.547 43.1421Z" fill="white"/>
<path d="M189.575 52.8771V82.2706C187.334 84.405 184.792 86.3129 181.941 87.9904C180.829 88.6506 179.673 89.2725 178.472 89.8598C177.151 90.5009 175.772 91.046 174.334 91.4875C173.562 91.7293 172.777 91.9404 171.971 92.1209C169.397 92.7082 166.653 93 163.736 93C163.136 93 162.542 92.9846 161.956 92.9577C161.551 92.9385 161.153 92.9117 160.755 92.8771C157.183 92.5892 153.872 91.7562 150.819 90.3897C149.072 89.6104 147.436 88.6929 145.913 87.6373C144.039 86.3436 142.334 84.8427 140.794 83.1382C137.998 80.0442 135.826 76.3704 134.268 72.1171C132.714 67.8638 131.935 63.2227 131.935 58.1939V58.002C131.935 55.2458 132.192 52.5932 132.707 50.0404C133.095 48.1095 133.63 46.2323 134.313 44.4165C135.356 41.6296 136.673 39.0653 138.262 36.7274C139.075 35.5221 139.963 34.3781 140.924 33.2956C143.744 30.1056 147.086 27.5912 150.946 25.7562C154.806 23.9175 159.039 23 163.65 23C166.357 23 168.821 23.2073 171.041 23.6257C173.257 24.048 175.316 24.643 177.216 25.4146C179.12 26.19 180.905 27.1574 182.575 28.3167C183.142 28.7082 183.704 29.1228 184.257 29.5566C185.334 30.3935 186.387 31.3033 187.416 32.2822L184.562 36.1325L179.031 43.595C177.878 42.4972 176.729 41.5298 175.576 40.6929C174.424 39.8561 173.226 39.1459 171.991 38.5663C170.749 37.9866 169.411 37.5336 167.97 37.2112C166.529 36.8888 164.947 36.7275 163.218 36.7275C162.902 36.7275 162.59 36.739 162.278 36.7583C160.316 36.8811 158.459 37.3878 156.713 38.2823C156.62 38.3283 156.528 38.3744 156.435 38.4243C154.332 39.5567 152.49 41.0731 150.905 42.9809C149.32 44.8888 148.081 47.1152 147.189 49.6681C147.144 49.7909 147.103 49.9176 147.065 50.0405C146.252 52.4819 145.847 55.0923 145.847 57.8562V58.0481C145.847 58.7122 145.868 59.3648 145.913 60.0059C146.06 62.3629 146.486 64.5702 147.189 66.6239C148.081 69.242 149.347 71.5222 150.99 73.4569C152.634 75.3955 154.562 76.8965 156.782 77.9636C158.027 78.5625 159.352 78.9924 160.755 79.2496C160.906 79.2803 161.057 79.3072 161.208 79.3302C162.161 79.4837 163.146 79.5605 164.169 79.5605C165.109 79.5605 166.018 79.5106 166.9 79.4107C169.867 79.0844 172.523 78.2016 174.859 76.7659C175.497 76.3782 176.108 75.9444 176.698 75.4722V65.7371H163.304V52.8771H189.575Z" fill="white"/>
<path d="M189.574 76.7661H174.859C175.497 76.3784 176.108 75.9446 176.698 75.4724V65.7373H179.717C185.161 65.7373 189.574 70.6751 189.574 76.7661Z" fill="white"/>
</svg>
