<svg width="32" height="32" viewBox="0 0 32 32" fill="none" xmlns="http://www.w3.org/2000/svg">
<path fill-rule="evenodd" clip-rule="evenodd" d="M5.34224 29.1753C3.55856 29.1753 2.10706 27.7238 2.10706 25.9401V6.05994C2.10706 4.27625 3.55856 2.82475 5.34224 2.82475H16.2701C18.0537 2.82475 19.5052 4.27625 19.5052 6.05994V11.1038C19.5052 11.778 18.9554 12.3279 18.2812 12.3279H17.8954C17.2212 12.3279 16.6714 11.778 16.6714 11.1038V6.05994C16.6714 5.84063 16.4892 5.65857 16.27 5.65857C11.5869 5.65857 10.0252 5.65857 5.34218 5.65857C5.12287 5.65857 4.94081 5.84063 4.94081 6.05994V25.9401C4.94081 26.1594 5.12293 26.3414 5.34218 26.3414H16.27C16.4892 26.3414 16.6714 26.1593 16.6714 25.9401V20.8962C16.6714 20.222 17.2212 19.6721 17.8954 19.6721H18.2812C18.9554 19.6721 19.5052 20.222 19.5052 20.8962V25.9401C19.5052 27.7238 18.0537 29.1753 16.2701 29.1753C11.587 29.1753 10.0253 29.1753 5.34224 29.1753ZM22.4124 21.4683C21.8592 22.0216 21.8592 22.9186 22.4124 23.4719C22.9657 24.0253 23.8627 24.0253 24.4161 23.4719L28.4866 19.4014C30.3617 17.5263 30.3617 14.4737 28.4866 12.5986L24.4161 8.52807C23.8628 7.97482 22.9657 7.97482 22.4124 8.52807C21.8592 9.08138 21.8592 9.97838 22.4124 10.5317L25.9415 14.0608C26.1344 14.2537 25.9979 14.5831 25.7251 14.5831H9.08412C8.30162 14.5831 7.66724 15.2175 7.66724 16.0001C7.66724 16.7826 8.30162 17.417 9.08412 17.417H25.7251C25.9979 17.417 26.1344 17.7464 25.9415 17.9394L22.4124 21.4683Z" fill="white"/>
</svg>
