<svg width="25" height="32" viewBox="0 0 25 32" fill="none" xmlns="http://www.w3.org/2000/svg">
<path d="M20.2 0H10.5999C10.1755 0 9.76857 0.168571 9.46851 0.468629C9.16845 0.768687 8.99988 1.17565 8.99988 1.6C8.99988 2.02435 9.16845 2.43131 9.46851 2.73137C9.76857 3.03143 10.1755 3.2 10.5999 3.2H20.2C20.6243 3.2 21.0313 3.36857 21.3314 3.66863C21.6314 3.96869 21.8 4.37565 21.8 4.8V27.2C21.8 27.6243 21.6314 28.0313 21.3314 28.3314C21.0313 28.6314 20.6243 28.8 20.2 28.8H10.5999C10.1755 28.8 9.76857 28.9686 9.46851 29.2686C9.16845 29.5687 8.99988 29.9757 8.99988 30.4C8.99988 30.8243 9.16845 31.2313 9.46851 31.5314C9.76857 31.8314 10.1755 32 10.5999 32H20.2C21.473 32 22.694 31.4943 23.5941 30.5941C24.4943 29.6939 25 28.473 25 27.2V4.8C25 3.52696 24.4943 2.30606 23.5941 1.40589C22.694 0.505713 21.473 0 20.2 0Z" fill="white"/>
<path d="M7.49026 21.2559C7.61562 21.4031 7.71561 21.5792 7.78439 21.774C7.85318 21.9687 7.88939 22.1781 7.8909 22.3901C7.89242 22.602 7.85921 22.8121 7.79321 23.0083C7.72722 23.2045 7.62976 23.3827 7.50653 23.5325C7.38329 23.6824 7.23674 23.8009 7.07544 23.8811C6.91414 23.9614 6.74131 24.0018 6.56703 23.9999C6.39276 23.9981 6.22053 23.9541 6.06039 23.8704C5.90026 23.7868 5.75543 23.6652 5.63436 23.5127L0.384287 17.1284C0.138228 16.8291 0 16.4232 0 16C0 15.5768 0.138228 15.1709 0.384287 14.8716L5.63436 8.48726C5.75543 8.33482 5.90026 8.21323 6.06039 8.12958C6.22053 8.04593 6.39276 8.0019 6.56703 8.00006C6.74131 7.99822 6.91414 8.0386 7.07544 8.11885C7.23674 8.19911 7.38329 8.31762 7.50653 8.46748C7.62976 8.61734 7.72722 8.79555 7.79321 8.9917C7.85921 9.18785 7.89242 9.39802 7.8909 9.60995C7.88939 9.82187 7.85318 10.0313 7.78439 10.226C7.71561 10.4208 7.61562 10.5969 7.49026 10.7441L4.48065 14.4039H19.6875C20.0356 14.4039 20.3694 14.5721 20.6156 14.8714C20.8617 15.1707 21 15.5767 21 16C21 16.4233 20.8617 16.8293 20.6156 17.1286C20.3694 17.4279 20.0356 17.5961 19.6875 17.5961H4.48065L7.49026 21.2559Z" fill="white"/>
</svg>
