<svg width="32" height="32" viewBox="0 0 32 32" fill="none" xmlns="http://www.w3.org/2000/svg">
<g clip-path="url(#clip0_46_54)">
<path d="M11.3333 13.3333C11.9926 13.3333 12.6371 13.1378 13.1852 12.7716C13.7334 12.4053 14.1606 11.8847 14.4129 11.2756C14.6652 10.6665 14.7312 9.99631 14.6026 9.34971C14.474 8.7031 14.1565 8.10916 13.6904 7.64298C13.2242 7.17681 12.6302 6.85934 11.9836 6.73072C11.337 6.6021 10.6668 6.66812 10.0577 6.92041C9.44863 7.1727 8.92804 7.59994 8.56177 8.14811C8.1955 8.69627 8 9.34074 8 10C8.00104 10.8837 8.35256 11.731 8.97746 12.3559C9.60235 12.9808 10.4496 13.3323 11.3333 13.3333ZM11.3333 8.00001C11.7289 8.00001 12.1156 8.1173 12.4445 8.33707C12.7734 8.55683 13.0297 8.86919 13.1811 9.23464C13.3325 9.60009 13.3721 10.0022 13.2949 10.3902C13.2177 10.7781 13.0273 11.1345 12.7475 11.4142C12.4678 11.6939 12.1115 11.8844 11.7235 11.9616C11.3356 12.0387 10.9334 11.9991 10.568 11.8478C10.2025 11.6964 9.89016 11.44 9.67039 11.1111C9.45063 10.7822 9.33333 10.3956 9.33333 10C9.33391 9.46975 9.54481 8.96138 9.91976 8.58643C10.2947 8.21149 10.8031 8.00059 11.3333 8.00001Z" fill="#EAEEF5"/>
<path d="M16 0C12.8355 0 9.74207 0.938384 7.11088 2.69649C4.4797 4.45459 2.42894 6.95345 1.21793 9.87706C0.00693258 12.8007 -0.309921 16.0177 0.307443 19.1214C0.924806 22.2251 2.44866 25.0761 4.6863 27.3137C6.92394 29.5513 9.77487 31.0752 12.8786 31.6926C15.9823 32.3099 19.1993 31.9931 22.1229 30.7821C25.0466 29.5711 27.5454 27.5203 29.3035 24.8891C31.0616 22.2579 32 19.1645 32 16C31.9952 11.758 30.3079 7.69118 27.3084 4.69165C24.3088 1.69212 20.242 0.00485226 16 0ZM16 1.33333C18.4333 1.331 20.8289 1.93471 22.9705 3.08996C25.1121 4.2452 26.9323 5.91561 28.2668 7.95039C29.6012 9.98516 30.4079 12.3202 30.614 14.7448C30.8201 17.1694 30.4192 19.6071 29.4474 21.838L19.8047 12.1953C19.7428 12.1334 19.6693 12.0843 19.5884 12.0508C19.5076 12.0173 19.4209 12 19.3334 12C19.2458 12 19.1591 12.0173 19.0783 12.0508C18.9974 12.0843 18.9239 12.1334 18.862 12.1953L11.6667 19.3907L9.13803 16.862C9.07615 16.8001 9.00267 16.7509 8.92179 16.7174C8.84092 16.6839 8.75424 16.6667 8.6667 16.6667C8.57916 16.6667 8.49248 16.6839 8.41161 16.7174C8.33073 16.7509 8.25726 16.8001 8.19537 16.862L2.76962 22.2877C1.69972 20.0546 1.21405 17.5864 1.35807 15.1144C1.50209 12.6424 2.2711 10.2474 3.59309 8.15366C4.91507 6.05989 6.74679 4.33586 8.91673 3.14301C11.0867 1.95015 13.5238 1.32749 16 1.33333ZM16 30.6667C13.4649 30.6635 10.974 30.0028 8.77045 28.7493C6.56694 27.4957 4.72621 25.6922 3.42801 23.5147L8.66667 18.276L12.862 22.4713C12.9877 22.5928 13.1561 22.66 13.3309 22.6584C13.5057 22.6569 13.6729 22.5868 13.7965 22.4632C13.9201 22.3396 13.9902 22.1724 13.9918 21.9976C13.9933 21.8228 13.9261 21.6544 13.8046 21.5287L12.6093 20.3333L19.3333 13.6093L28.824 23.1C27.5559 25.3907 25.6981 27.3003 23.4431 28.6308C21.1881 29.9613 18.6182 30.6643 16 30.6667Z" fill="#EAEEF5"/>
</g>
<defs>
<clipPath id="clip0_46_54">
<rect width="32" height="32" fill="white"/>
</clipPath>
</defs>
</svg>
