<svg width="32" height="32" viewBox="0 0 32 32" fill="none" xmlns="http://www.w3.org/2000/svg">
<path d="M0 21.0297C0 23.1461 1.24307 25.1185 3.24418 26.1766L12.7549 31.2064C13.7561 31.7355 14.8779 32 15.9997 32C17.1221 32 18.2439 31.7355 19.2445 31.2064L28.7552 26.1766C30.7569 25.1185 32 23.1461 32 21.0297V10.9703C32 8.85391 30.7569 6.88154 28.7552 5.82336L19.2445 0.793637C17.2422 -0.264546 14.756 -0.264546 12.7549 0.793637L3.24418 5.82336C1.24307 6.88154 0 8.85391 0 10.9703V21.0297ZM2.4959 10.9703C2.4959 9.66764 3.26063 8.4543 4.49213 7.80354L14.0029 2.77382C14.6189 2.44789 15.3093 2.28492 15.9997 2.28492C16.6907 2.28492 17.3811 2.44789 17.9965 2.77382L27.5073 7.80354C28.7388 8.4543 29.5041 9.66764 29.5041 10.9703V11.2672C20.1601 12.5637 12.1486 18.3291 8.53851 26.3364L4.49213 24.1965C3.26063 23.5457 2.4959 22.3324 2.4959 21.0297V10.9703ZM14.0029 29.2262L10.7237 27.492C13.8915 20.1823 21.0728 14.8682 29.5041 13.5756V21.0297C29.5041 22.3324 28.7388 23.5457 27.5073 24.1965L17.9965 29.2262C16.7669 29.8792 15.2362 29.8792 14.0029 29.2262Z" fill="white"/>
<path d="M10.6319 15.6171C13.0401 15.6171 14.9997 13.8223 14.9997 11.6166C14.9997 9.41092 13.0401 7.61603 10.6319 7.61603C8.22377 7.61603 6.2641 9.41092 6.2641 11.6166C6.2641 13.8223 8.22377 15.6171 10.6319 15.6171ZM10.6319 9.90206C11.6642 9.90206 12.5038 10.6711 12.5038 11.6166C12.5038 12.562 11.6642 13.3311 10.6319 13.3311C9.59968 13.3311 8.76 12.562 8.76 11.6166C8.76 10.6711 9.59968 9.90206 10.6319 9.90206Z" fill="white"/>
</svg>
