<svg width="32" height="32" viewBox="0 0 32 32" fill="none" xmlns="http://www.w3.org/2000/svg">
<g clip-path="url(#clip0_46_57)">
<path d="M27.3334 26.6667C27.2241 26.6667 27.1147 26.648 27.0107 26.6133L0.677393 17.6133C0.298726 17.4827 0.0347263 17.1413 0.00272629 16.7427C-0.026607 16.344 0.182726 15.9653 0.53606 15.78L30.5361 0.113334C30.8707 -0.058666 31.2747 -0.0319994 31.5787 0.185334C31.8854 0.404001 32.0441 0.774667 31.9894 1.148L28.3227 25.8147C28.2787 26.108 28.1067 26.3667 27.8521 26.5213C27.6947 26.6173 27.5147 26.6667 27.3334 26.6667ZM3.52806 16.4733L26.5201 24.332L29.7214 2.796L3.52806 16.4733Z" fill="#EAEEF5"/>
<path d="M12.6666 30.6667C12.5626 30.6667 12.4573 30.6507 12.356 30.6173C11.944 30.4813 11.6666 30.0987 11.6666 29.6667V20.6667C11.6666 20.4147 11.7626 20.1693 11.9346 19.984L30.268 0.317328C30.644 -0.0880055 31.28 -0.108006 31.6826 0.267994C32.0866 0.643995 32.108 1.27733 31.732 1.68266L13.6666 21.06V26.6173L17.004 22.0747C17.3306 21.632 17.9573 21.5333 18.4026 21.8613C18.848 22.188 18.9426 22.8147 18.616 23.26L13.4733 30.26C13.28 30.52 12.9786 30.6667 12.6666 30.6667Z" fill="#EAEEF5"/>
</g>
<defs>
<clipPath id="clip0_46_57">
<rect width="32" height="32" fill="white"/>
</clipPath>
</defs>
</svg>
