<svg width="32" height="32" viewBox="0 0 32 32" fill="none" xmlns="http://www.w3.org/2000/svg">
<path d="M10.6355 15.2786C10.5797 15.2786 10.524 15.2706 10.4763 15.2547L0.351995 11.9438C0.0813776 11.8563 -0.0618904 11.5698 0.0256624 11.2992C0.0734184 11.148 0.192808 11.0286 0.336076 10.9808L15.817 5.5052L31.3059 0.0375232C31.5685 -0.057982 31.863 0.077317 31.9585 0.339957C32.054 0.602596 31.9187 0.897071 31.6561 0.992576C31.6481 0.992576 31.6481 0.992576 31.6402 1.00053L16.1513 6.46821L2.08713 11.4345L10.7946 14.2837C11.0653 14.3713 11.2085 14.6578 11.121 14.9284C11.0493 15.1433 10.8583 15.2865 10.6355 15.2786Z" fill="white"/>
<path d="M17.2258 21.8685C16.9473 21.8685 16.7164 21.6377 16.7164 21.3591C16.7164 21.2557 16.7483 21.1602 16.804 21.0726L31.0273 0.260438C31.1785 0.0216743 31.4969 -0.041996 31.7277 0.109221C31.9665 0.260437 32.0302 0.578788 31.879 0.809593C31.871 0.817551 31.871 0.82551 31.8631 0.833469L17.6397 21.6457C17.5442 21.7889 17.393 21.8685 17.2258 21.8685Z" fill="white"/>
<path d="M10.6355 15.2786C10.3569 15.2786 10.1261 15.0478 10.1261 14.7692C10.1261 14.6021 10.2057 14.4429 10.349 14.3474L31.1945 0.101208C31.4253 -0.0659266 31.7437 -0.0102154 31.9029 0.21263C32.07 0.443435 32.0143 0.761786 31.7914 0.920961C31.7835 0.92892 31.7755 0.92892 31.7675 0.936878L10.922 15.191C10.8424 15.2468 10.739 15.2786 10.6355 15.2786Z" fill="white"/>
<path d="M11.1449 22.9986C11.0096 22.9986 10.8822 22.9429 10.7867 22.8474L9.1471 21.2079C9.02771 21.0885 8.97199 20.9214 9.00383 20.7542L10.1341 14.6817C10.1818 14.4031 10.4524 14.2201 10.731 14.2758C11.0096 14.3315 11.1926 14.5941 11.1369 14.8727L10.0545 20.6826L11.32 21.9481L17.1303 20.8657C17.4089 20.8179 17.6715 20.993 17.7273 21.2716C17.775 21.5501 17.5999 21.8128 17.3213 21.8685L11.2404 23.0066C11.2086 22.9986 11.1767 22.9986 11.1449 22.9986Z" fill="white"/>
<path d="M20.5369 32C20.314 32 20.123 31.8567 20.0514 31.6498L16.7323 21.5183C16.6448 21.2477 16.788 20.9612 17.0587 20.8736C17.3293 20.7861 17.6158 20.9293 17.7034 21.1999L20.5528 29.9068L25.5274 15.8357L30.9875 0.347963C31.0751 0.0773646 31.3696 -0.0658934 31.6322 0.0296119C31.9028 0.117158 32.0461 0.411633 31.9506 0.674273C31.9506 0.682231 31.9506 0.682231 31.9426 0.69019L26.4746 16.178L20.9985 31.6578C20.9428 31.8567 20.7518 32 20.5369 32Z" fill="white"/>
</svg>
