<svg width="32" height="32" viewBox="0 0 32 32" fill="none" xmlns="http://www.w3.org/2000/svg">
<path d="M28.8973 17.225C29.3789 17.3074 29.8205 16.9592 29.8696 16.4735C29.9188 15.9852 29.9438 15.4829 29.9438 14.9721C29.9438 6.15326 22.2787 -0.909336 13.2614 0.09544C6.40455 0.86027 0.861553 6.40154 0.0958806 13.2583C-0.911407 22.2772 6.15211 29.9438 14.9719 29.9438C15.4843 29.9438 15.9867 29.9188 16.4733 29.8696C16.9598 29.8205 17.3073 29.3781 17.2248 28.8965C17.1523 28.4716 16.7674 28.1642 16.3383 28.2084C15.8967 28.2542 15.4402 28.2775 14.9719 28.2775C7.42351 28.2775 1.32396 21.9597 1.68138 14.3356C1.99881 7.56711 7.56848 1.99835 14.3379 1.68175C21.9613 1.32517 28.2775 7.42464 28.2775 14.9721C28.2775 15.4387 28.2541 15.8953 28.2083 16.3377C28.1641 16.7667 28.4716 17.1525 28.8973 17.225Z" fill="#EAEEF5"/>
<path d="M24.9698 32C28.8456 32 32 28.8465 32 24.9699C32 21.0933 28.8456 17.9406 24.9698 17.9406C21.0939 17.9406 17.9404 21.0941 17.9404 24.9699C17.9404 28.8457 21.0939 32 24.9698 32ZM24.9698 19.6069C27.9275 19.6069 30.3337 22.0131 30.3337 24.9707C30.3337 27.9284 27.9275 30.3337 24.9698 30.3337C22.0121 30.3337 19.6067 27.9276 19.6067 24.9699C19.6067 22.0122 22.0121 19.6069 24.9698 19.6069Z" fill="#EAEEF5"/>
<path d="M24.0366 25.9114H25.9029H28.3107C28.7773 25.9114 29.1439 25.5364 29.1439 25.0782V24.8699C29.1439 24.4117 28.7773 24.0368 28.3107 24.0368H25.9029H24.0366H21.6288C21.1622 24.0368 20.7957 24.4117 20.7957 24.8699V25.0782C20.7957 25.5364 21.1622 25.9114 21.6288 25.9114H24.0366Z" fill="#EAEEF5"/>
<path d="M18.642 17.8082C18.642 15.7844 16.9957 14.1373 14.9719 14.1373C13.8672 14.1373 12.9682 13.2383 12.9682 12.1336C12.9682 11.0288 13.8672 10.1299 14.9719 10.1299C16.0767 10.1299 16.9757 11.0288 16.9757 12.1336C16.9757 12.5935 17.3489 12.9667 17.8088 12.9667C18.2687 12.9667 18.642 12.5935 18.642 12.1336C18.642 10.4673 17.5197 9.07344 15.9959 8.62687V6.97557C15.9959 6.51568 15.6226 6.14243 15.1627 6.14243C14.7028 6.14243 14.3296 6.51568 14.3296 6.97557V8.52856C12.6116 8.83433 11.301 10.3298 11.301 12.1336C11.301 14.1573 12.9473 15.8036 14.9711 15.8036C16.0759 15.8036 16.9748 16.7034 16.9748 17.8082C16.9748 18.9129 16.0767 19.8127 14.9719 19.8127C13.8672 19.8127 12.9682 18.9138 12.9682 17.809C12.9682 17.3483 12.5949 16.9758 12.135 16.9758C11.6751 16.9758 11.3019 17.3483 11.3019 17.809C11.3019 19.6128 12.6124 21.1091 14.3304 21.414V22.9687C14.3304 23.4294 14.7036 23.8018 15.1635 23.8018C15.6234 23.8018 15.9967 23.4294 15.9967 22.9687V21.3157C17.5197 20.8683 18.642 19.4745 18.642 17.8082Z" fill="#EAEEF5"/>
</svg>
